<svg width="48" height="48" viewBox="0 0 48 48" fill="none" xmlns="http://www.w3.org/2000/svg">
<path d="M25 14H21C16 14 14 16 14 21V27C14 32 16 34 21 34H27C32 34 34 32 34 27V22M27.75 17H33.25M30.5 19.75V14.25M14.6699 30.95L19.5999 27.64C20.3899 27.11 21.5299 27.17 22.2399 27.78L22.5699 28.07C23.3499 28.74 24.6099 28.74 25.3899 28.07L29.5499 24.5C30.3299 23.83 31.5899 23.83 32.3699 24.5L33.9999 25.9M23 20C23 21.1046 22.1046 22 21 22C19.8954 22 19 21.1046 19 20C19 18.8954 19.8954 18 21 18C22.1046 18 23 18.8954 23 20Z" stroke="white" stroke-width="1.5" stroke-linecap="round" stroke-linejoin="round"/>
</svg>
