<svg width="17" height="16" viewBox="0 0 17 16" fill="none" xmlns="http://www.w3.org/2000/svg">
<path d="M13.8102 2.33516C12.2974 0.83718 10.2539 -0.00217818 8.125 4.24528e-06H8.04141C5.90104 0.0220265 3.85583 0.887763 2.35013 2.40912C0.844426 3.93047 -0.000113279 5.98453 1.13965e-08 8.125C1.13965e-08 11.4844 2.07656 14.3016 5.41875 15.482C5.79571 15.6149 6.19904 15.6555 6.59492 15.6004C6.99081 15.5452 7.36769 15.396 7.69398 15.1651C8.02027 14.9342 8.28644 14.6285 8.47019 14.2735C8.65393 13.9186 8.74988 13.5247 8.75 13.125C8.75 12.7935 8.8817 12.4755 9.11612 12.2411C9.35054 12.0067 9.66848 11.875 10 11.875H13.6102C14.1772 11.8777 14.7282 11.6865 15.1716 11.3329C15.615 10.9793 15.9241 10.4847 16.0477 9.93125C16.1874 9.31618 16.2553 8.68697 16.25 8.05625C16.242 6.98865 16.0223 5.93323 15.6035 4.95117C15.1847 3.96911 14.5751 3.07993 13.8102 2.33516ZM14.8258 9.65625C14.7637 9.93199 14.6094 10.1783 14.3884 10.3544C14.1673 10.5306 13.8928 10.626 13.6102 10.625H10C9.33696 10.625 8.70107 10.8884 8.23223 11.3572C7.76339 11.8261 7.5 12.462 7.5 13.125C7.49971 13.3247 7.4516 13.5213 7.35969 13.6986C7.26778 13.8758 7.13475 14.0285 6.97174 14.1438C6.80872 14.2591 6.62046 14.3336 6.42272 14.3612C6.22498 14.3888 6.0235 14.3686 5.83516 14.3023C3.00703 13.3047 1.25 10.9375 1.25 8.125C1.2499 6.31389 1.96446 4.5759 3.23844 3.28861C4.51242 2.00132 6.24289 1.26873 8.05391 1.25H8.12422C9.9353 1.25704 11.6711 1.97561 12.9572 3.25076C14.2433 4.52591 14.9767 6.25545 14.9992 8.06641C15.0039 8.60115 14.9467 9.13463 14.8289 9.65625H14.8258ZM9.0625 4.0625C9.0625 4.24792 9.00751 4.42918 8.9045 4.58335C8.80149 4.73752 8.65507 4.85768 8.48376 4.92864C8.31246 4.9996 8.12396 5.01816 7.9421 4.98199C7.76024 4.94582 7.5932 4.85653 7.46209 4.72542C7.33098 4.59431 7.24169 4.42726 7.20551 4.2454C7.16934 4.06354 7.1879 3.87504 7.25886 3.70374C7.32982 3.53243 7.44998 3.38601 7.60415 3.283C7.75832 3.17999 7.93958 3.125 8.125 3.125C8.37364 3.125 8.6121 3.22378 8.78791 3.39959C8.96373 3.57541 9.0625 3.81386 9.0625 4.0625ZM5.625 5.9375C5.625 6.12292 5.57002 6.30418 5.467 6.45835C5.36399 6.61252 5.21757 6.73268 5.04627 6.80364C4.87496 6.8746 4.68646 6.89316 4.5046 6.85699C4.32274 6.82082 4.1557 6.73153 4.02459 6.60042C3.89348 6.46931 3.80419 6.30226 3.76801 6.1204C3.73184 5.93854 3.75041 5.75004 3.82136 5.57874C3.89232 5.40743 4.01248 5.26101 4.16665 5.158C4.32082 5.05499 4.50208 5 4.6875 5C4.93614 5 5.1746 5.09878 5.35041 5.27459C5.52623 5.45041 5.625 5.68886 5.625 5.9375ZM5.625 10.3125C5.625 10.4979 5.57002 10.6792 5.467 10.8334C5.36399 10.9875 5.21757 11.1077 5.04627 11.1786C4.87496 11.2496 4.68646 11.2682 4.5046 11.232C4.32274 11.1958 4.1557 11.1065 4.02459 10.9754C3.89348 10.8443 3.80419 10.6773 3.76801 10.4954C3.73184 10.3135 3.75041 10.125 3.82136 9.95374C3.89232 9.78243 4.01248 9.63602 4.16665 9.533C4.32082 9.42999 4.50208 9.375 4.6875 9.375C4.93614 9.375 5.1746 9.47378 5.35041 9.64959C5.52623 9.82541 5.625 10.0639 5.625 10.3125ZM12.5 5.9375C12.5 6.12292 12.445 6.30418 12.342 6.45835C12.239 6.61252 12.0926 6.73268 11.9213 6.80364C11.75 6.8746 11.5615 6.89316 11.3796 6.85699C11.1977 6.82082 11.0307 6.73153 10.8996 6.60042C10.7685 6.46931 10.6792 6.30226 10.643 6.1204C10.6068 5.93854 10.6254 5.75004 10.6964 5.57874C10.7673 5.40743 10.8875 5.26101 11.0417 5.158C11.1958 5.05499 11.3771 5 11.5625 5C11.8111 5 12.0496 5.09878 12.2254 5.27459C12.4012 5.45041 12.5 5.68886 12.5 5.9375Z" fill="#657DF2"/>
</svg>
