<svg width="24" height="24" viewBox="0 0 24 24" fill="none" xmlns="http://www.w3.org/2000/svg">
<path d="M9.13 2.5C6.47 2.56 4.91 2.81 3.85 3.87C2.92 4.8 2.6 6.11 2.5 8.2" stroke="#627DF2" stroke-width="2" stroke-linecap="round" stroke-linejoin="round"/>
<path d="M14.8701 2.5C17.5401 2.56 19.0901 2.81 20.1601 3.87C21.0901 4.8 21.4001 6.1 21.5101 8.2" stroke="#627DF2" stroke-width="2" stroke-linecap="round" stroke-linejoin="round"/>
<path d="M14.8701 21.5008C17.5401 21.4408 19.0901 21.1908 20.1601 20.1308C21.0901 19.2008 21.4001 17.9008 21.5101 15.8008" stroke="#627DF2" stroke-width="2" stroke-linecap="round" stroke-linejoin="round"/>
<path d="M9.13023 21.5008C6.46023 21.4408 4.91023 21.1908 3.84023 20.1308C2.91023 19.2008 2.60023 17.9008 2.49023 15.8008" stroke="#627DF2" stroke-width="2" stroke-linecap="round" stroke-linejoin="round"/>
<path d="M14.5 14.5L13.875 13.25M13.875 13.25L11.925 9.5L10.125 13.25M13.875 13.25H10.125M9.5 14.5L10.125 13.25" stroke="#627DF2" stroke-linecap="round" stroke-linejoin="round"/>
</svg>
