<svg width="62" height="62" viewBox="0 0 62 62" fill="none" xmlns="http://www.w3.org/2000/svg">
<g clip-path="url(#clip0_199_6211)">
<path d="M60.1255 15.7252C58.4992 9.73352 52.2677 3.50324 46.276 1.87574C42.6032 0.959062 37.6807 0.0157422 31 0C24.3193 0.0169531 19.398 0.959062 15.724 1.87574C9.73352 3.50324 3.50203 9.73352 1.87574 15.7252C0.959062 19.398 0.0169531 24.3205 0 31C0.0169531 37.6807 0.959062 42.602 1.87574 46.276C3.50324 52.2677 9.73352 58.498 15.7252 60.1255C19.3992 61.0421 24.3205 61.9843 31.0012 62.0012C37.6807 61.9843 42.6032 61.0421 46.2772 60.1255C52.2689 58.498 58.4992 52.2677 60.1267 46.276C61.0434 42.6032 61.9855 37.6807 62.0024 31C61.9855 24.3193 61.0434 19.398 60.1267 15.724L60.1255 15.7252Z" fill="#E6F1F4"/>
<path d="M51.2794 25.0122C50.9888 22.4462 48.3174 20.0316 45.5771 19.7362C44.0368 19.586 42.4965 19.4601 40.9562 19.3571C40.2272 18.0542 39.5018 16.7403 38.7874 15.4216C38.1601 14.27 37.0594 13.4768 35.9296 13.4138C33.659 13.2371 28.3394 13.2371 26.0701 13.4138C24.9403 13.4768 23.8396 14.27 23.2123 15.4216C22.5475 16.6507 21.8718 17.8749 21.1937 19.0907C21.1016 19.253 20.9357 19.3632 20.7626 19.3753C19.3155 19.4746 17.8684 19.5945 16.4226 19.7349C13.6822 20.0304 11.0109 22.445 10.7203 25.011C10.1184 30.7133 10.3764 36.4144 11.494 42.1167C11.7387 43.3615 12.5427 44.6403 13.6483 45.6938C14.7587 46.7437 16.0714 47.4763 17.315 47.6676C26.4382 49.0699 35.5614 49.0699 44.6846 47.6676C45.9295 47.4763 47.2409 46.7425 48.3514 45.6938C49.4569 44.6403 50.261 43.3615 50.5056 42.1167C51.6233 36.4144 51.8812 30.7133 51.2794 25.011V25.0122Z" fill="url(#paint0_linear_199_6211)"/>
<path d="M30.9319 43.4582C26.1886 43.4376 21.9431 39.1909 21.8426 34.318C21.8014 29.444 26.0457 25.2796 30.9319 25.2578C35.8168 25.2796 40.0623 29.444 40.0212 34.318C39.9207 39.1909 35.6763 43.4376 30.9319 43.4582Z" fill="url(#paint1_linear_199_6211)"/>
<path d="M43.4109 27.417C42.361 27.3346 41.5109 26.4833 41.4274 25.4334C41.322 24.099 42.4276 22.9934 43.7621 23.0988C44.8119 23.1811 45.662 24.0324 45.7456 25.0823C45.8509 26.4167 44.7453 27.5223 43.4109 27.417Z" fill="url(#paint2_linear_199_6211)"/>
<path d="M27.4856 33.4824C26.4357 33.4 25.5856 32.5488 25.5021 31.4989C25.3967 30.1644 26.5023 29.0588 27.8368 29.1642C28.8866 29.2465 29.7367 30.0978 29.8203 31.1477C29.9256 32.4822 28.82 33.5877 27.4856 33.4824Z" fill="#686889"/>
</g>
<defs>
<linearGradient id="paint0_linear_199_6211" x1="45.9719" y1="48.0794" x2="16.029" y2="18.1365" gradientUnits="userSpaceOnUse">
<stop stop-color="#78A0B5"/>
<stop offset="0.6" stop-color="#78A0B5"/>
<stop offset="1" stop-color="#A3C7D3"/>
</linearGradient>
<linearGradient id="paint1_linear_199_6211" x1="37.2857" y1="40.6391" x2="24.5781" y2="27.9304" gradientUnits="userSpaceOnUse">
<stop stop-color="#34344F"/>
<stop offset="0.54" stop-color="#353551"/>
<stop offset="1" stop-color="#666684"/>
</linearGradient>
<linearGradient id="paint2_linear_199_6211" x1="45.1183" y1="26.7885" x2="42.0558" y2="23.726" gradientUnits="userSpaceOnUse">
<stop stop-color="#C1DEE5"/>
<stop offset="0.57" stop-color="white"/>
<stop offset="1" stop-color="white"/>
</linearGradient>
<clipPath id="clip0_199_6211">
<rect width="62" height="62" fill="white"/>
</clipPath>
</defs>
</svg>
