<svg width="34" height="27" viewBox="0 0 34 27" fill="none" xmlns="http://www.w3.org/2000/svg">
<path d="M31.1667 0H2.83333C1.2691 0 0 1.29576 0 2.89286V24.1071C0 25.7042 1.2691 27 2.83333 27H31.1667C32.7309 27 34 25.7042 34 24.1071V2.89286C34 1.29576 32.7309 0 31.1667 0ZM10.3889 5.78571C12.4726 5.78571 14.1667 7.5154 14.1667 9.64286C14.1667 11.7703 12.4726 13.5 10.3889 13.5C8.30521 13.5 6.61111 11.7703 6.61111 9.64286C6.61111 7.5154 8.30521 5.78571 10.3889 5.78571ZM17 20.0571C17 20.696 16.4097 21.2143 15.6778 21.2143H5.1C4.36806 21.2143 3.77778 20.696 3.77778 20.0571V18.9C3.77778 16.9835 5.55451 15.4286 7.74445 15.4286H8.03958C8.76563 15.7359 9.5566 15.9107 10.3889 15.9107C11.2212 15.9107 12.0181 15.7359 12.7382 15.4286H13.0333C15.2233 15.4286 17 16.9835 17 18.9V20.0571ZM30.2222 16.875C30.2222 17.1402 30.0097 17.3571 29.75 17.3571H21.25C20.9903 17.3571 20.7778 17.1402 20.7778 16.875V15.9107C20.7778 15.6455 20.9903 15.4286 21.25 15.4286H29.75C30.0097 15.4286 30.2222 15.6455 30.2222 15.9107V16.875ZM30.2222 13.0179C30.2222 13.283 30.0097 13.5 29.75 13.5H21.25C20.9903 13.5 20.7778 13.283 20.7778 13.0179V12.0536C20.7778 11.7884 20.9903 11.5714 21.25 11.5714H29.75C30.0097 11.5714 30.2222 11.7884 30.2222 12.0536V13.0179ZM30.2222 9.16072C30.2222 9.42589 30.0097 9.64286 29.75 9.64286H21.25C20.9903 9.64286 20.7778 9.42589 20.7778 9.16072V8.19643C20.7778 7.93125 20.9903 7.71429 21.25 7.71429H29.75C30.0097 7.71429 30.2222 7.93125 30.2222 8.19643V9.16072Z" fill="#0ABF53"/>
</svg>
