<svg width="24" height="24" viewBox="0 0 24 24" fill="none" xmlns="http://www.w3.org/2000/svg">
<g opacity="0.6">
<path d="M14.3171 2L8.47005 11.4366C8.26366 11.7697 8.50323 12.2 8.89507 12.2H15.0906C15.4843 12.2 15.7235 12.6338 15.5136 12.9667L9.81707 22" stroke="white" stroke-width="2" stroke-miterlimit="10" stroke-linecap="round"/>
<path d="M20.499 19C20.499 19.8284 19.8275 20.5 18.999 20.5C18.1706 20.5 17.499 19.8284 17.499 19C17.499 18.1716 18.1706 17.5 18.999 17.5C19.8275 17.5 20.499 18.1716 20.499 19Z" stroke="white"/>
<path d="M19 16C19 16 19 16.2743 19 16.45M19 21.55V22M21.1212 21.1214L20.803 20.8032M17.1968 17.1968L16.8786 16.8786M22 19H21.55M16.45 19H16M21.1214 16.8786L20.8032 17.1968M17.1969 20.8032L16.8787 21.1214" stroke="white" stroke-linecap="round"/>
</g>
</svg>
