<svg width="20" height="20" viewBox="0 0 20 20" fill="none" xmlns="http://www.w3.org/2000/svg">
<path opacity="0.2" d="M18.7505 10.0006C18.7505 11.6582 18.092 13.248 16.9199 14.4201C15.7478 15.5922 14.1581 16.2506 12.5005 16.2506H5.62546C5.00512 16.2499 4.39203 16.1172 3.82688 15.8614C3.26172 15.6056 2.75743 15.2326 2.34746 14.767C1.93748 14.3014 1.63121 13.754 1.44895 13.161C1.26669 12.5681 1.21261 11.9431 1.29031 11.3277C1.36801 10.7122 1.57571 10.1203 1.89962 9.59125C2.22354 9.06218 2.65626 8.60805 3.16907 8.25899C3.68189 7.90993 4.26308 7.67391 4.87407 7.5666C5.48506 7.45929 6.11189 7.48315 6.71296 7.63658V7.6444C7.25987 6.30292 8.25581 5.19308 9.53048 4.50467C10.8051 3.81626 12.2794 3.59203 13.7011 3.87032C15.1228 4.1486 16.4037 4.91213 17.3247 6.03033C18.2457 7.14853 18.7497 8.55196 18.7505 10.0006Z" fill="#657DF2"/>
<path d="M13.933 12.9422L12.5002 11.5086V16.25C12.5002 16.4158 12.4343 16.5747 12.3171 16.6919C12.1999 16.8092 12.0409 16.875 11.8752 16.875C11.7094 16.875 11.5504 16.8092 11.4332 16.6919C11.316 16.5747 11.2502 16.4158 11.2502 16.25V11.5086L9.81736 12.9422C9.75929 13.0003 9.69035 13.0463 9.61448 13.0777C9.53861 13.1092 9.45729 13.1253 9.37517 13.1253C9.29305 13.1253 9.21173 13.1092 9.13586 13.0777C9.05999 13.0463 8.99105 13.0003 8.93298 12.9422C8.87492 12.8841 8.82885 12.8152 8.79743 12.7393C8.766 12.6634 8.74982 12.5821 8.74982 12.5C8.74982 12.4179 8.766 12.3366 8.79743 12.2607C8.82885 12.1848 8.87492 12.1159 8.93298 12.0578L11.433 9.55781C11.491 9.4997 11.56 9.4536 11.6358 9.42215C11.7117 9.3907 11.793 9.37451 11.8752 9.37451C11.9573 9.37451 12.0386 9.3907 12.1145 9.42215C12.1904 9.4536 12.2593 9.4997 12.3174 9.55781L14.8174 12.0578C14.8754 12.1159 14.9215 12.1848 14.9529 12.2607C14.9843 12.3366 15.0005 12.4179 15.0005 12.5C15.0005 12.5821 14.9843 12.6634 14.9529 12.7393C14.9215 12.8152 14.8754 12.8841 14.8174 12.9422C14.7593 13.0003 14.6904 13.0463 14.6145 13.0777C14.5386 13.1092 14.4573 13.1253 14.3752 13.1253C14.2931 13.1253 14.2117 13.1092 14.1359 13.0777C14.06 13.0463 13.9911 13.0003 13.933 12.9422ZM12.5002 3.125C11.2233 3.12596 9.97181 3.4822 8.88582 4.15386C7.79983 4.82551 6.92214 5.78609 6.35095 6.92812C5.67089 6.82819 4.97753 6.86955 4.31418 7.04962C3.65082 7.22969 3.03171 7.5446 2.49552 7.97468C1.95934 8.40476 1.51759 8.94078 1.19786 9.54926C0.878135 10.1577 0.687302 10.8256 0.637281 11.5111C0.58726 12.1967 0.679125 12.8852 0.907139 13.5336C1.13515 14.1821 1.49442 14.7765 1.9625 15.2799C2.43057 15.7832 2.99741 16.1847 3.6276 16.4591C4.2578 16.7336 4.93781 16.8752 5.62517 16.875H8.75017C8.91593 16.875 9.0749 16.8092 9.19211 16.6919C9.30932 16.5747 9.37517 16.4158 9.37517 16.25C9.37517 16.0842 9.30932 15.9253 9.19211 15.8081C9.0749 15.6908 8.91593 15.625 8.75017 15.625H5.62517C4.63061 15.625 3.67678 15.2299 2.97352 14.5267C2.27026 13.8234 1.87517 12.8696 1.87517 11.875C1.87517 10.8804 2.27026 9.92661 2.97352 9.22335C3.67678 8.52009 4.63061 8.125 5.62517 8.125C5.71111 8.125 5.79705 8.125 5.8822 8.13438C5.71135 8.74152 5.62487 9.36928 5.62517 10C5.62517 10.1658 5.69102 10.3247 5.80823 10.4419C5.92544 10.5592 6.08441 10.625 6.25017 10.625C6.41593 10.625 6.5749 10.5592 6.69211 10.4419C6.80932 10.3247 6.87517 10.1658 6.87517 10C6.87533 8.98591 7.14962 7.99071 7.66904 7.11974C8.18846 6.24877 8.93367 5.53441 9.82582 5.05227C10.718 4.57013 11.7239 4.33814 12.7371 4.38084C13.7503 4.42355 14.7331 4.73937 15.5815 5.29487C16.4299 5.85038 17.1123 6.62491 17.5566 7.53651C18.0009 8.4481 18.1905 9.46284 18.1053 10.4734C18.0201 11.4839 17.6633 12.4526 17.0727 13.2769C16.4821 14.1013 15.6796 14.7506 14.7502 15.1562C14.6182 15.2135 14.51 15.3144 14.4438 15.4422C14.3776 15.5699 14.3576 15.7165 14.3869 15.8573C14.4163 15.9981 14.4933 16.1245 14.6051 16.2151C14.7168 16.3057 14.8563 16.355 15.0002 16.3547C15.0863 16.3546 15.1715 16.3365 15.2502 16.3016C16.6981 15.67 17.8843 14.559 18.6094 13.1556C19.3345 11.7521 19.5541 10.1418 19.2314 8.59542C18.9086 7.04906 18.0632 5.66101 16.8373 4.66473C15.6114 3.66845 14.0799 3.12473 12.5002 3.125Z" fill="#657DF2"/>
</svg>
