<svg width="26" height="34" viewBox="0 0 26 34" fill="none" xmlns="http://www.w3.org/2000/svg">
<path d="M15.1667 9.03125V0H2.00032C0.895765 0 0.000337212 0.891637 0.000323292 1.9962C0.000257196 7.24106 8.07437e-05 21.715 1.219e-05 32.0049C4.83109e-06 33.1095 0.895437 34 2.00001 34H24C25.1046 34 26 33.1046 26 32V10.625H16.7917C15.898 10.625 15.1667 9.90781 15.1667 9.03125ZM19.0329 17H20.6511C21.1724 17 21.5584 17.4715 21.4433 17.9762L18.8704 29.1324C18.7891 29.4977 18.4573 29.75 18.0782 29.75H15.5053C15.1329 29.75 14.8079 29.4977 14.7199 29.1457C12.973 22.2727 13.3115 23.7535 12.9865 21.8078H12.9527C12.8782 22.7574 12.7902 22.9633 11.2194 29.1457C11.1314 29.4977 10.8064 29.75 10.434 29.75H7.922C7.54284 29.75 7.21107 29.491 7.12982 29.1258L4.57046 17.9695C4.45536 17.4715 4.84129 17 5.36264 17H7.02148C7.40742 17 7.74596 17.2656 7.82044 17.6441C8.87668 22.8238 9.18137 24.9156 9.2423 25.759C9.35064 25.0816 9.73657 23.5875 11.2329 17.6109C11.3209 17.2523 11.6459 17.0066 12.0251 17.0066H13.9954C14.3746 17.0066 14.6996 17.259 14.7876 17.6176C16.4126 24.2848 16.7376 25.852 16.7917 26.2105C16.7782 25.4668 16.6157 25.0285 18.2542 17.6309C18.3219 17.259 18.6537 17 19.0329 17ZM26 8.09492V8.5H17.3334V0H17.7464C18.1797 0 18.5928 0.166016 18.8974 0.464844L25.526 6.97266C25.8307 7.27148 26 7.67656 26 8.09492Z" fill="#7552CC"/>
</svg>
