<svg width="318" height="342" viewBox="0 0 318 342" fill="none" xmlns="http://www.w3.org/2000/svg">
<path d="M64.8475 0H261.69C268.087 0 273.269 5.17473 273.269 11.5636V306.436C273.269 312.825 268.087 318 261.69 318H64.8475C58.4501 318 53.2686 312.825 53.2686 306.436V11.5636C53.2686 5.17473 58.4501 0 64.8475 0Z" fill="white"/>
<path d="M99.5838 28.5469H140.11C146.508 28.5469 151.689 33.7216 151.689 40.1105V80.5832C151.689 86.9721 146.508 92.1469 140.11 92.1469H99.5838C93.1865 92.1469 88.0049 86.9721 88.0049 80.5832V40.1105C88.0049 33.7216 93.1865 28.5469 99.5838 28.5469Z" fill="#DBDFDF"/>
<path d="M170.505 38.666H231.295C235.29 38.666 238.532 41.9038 238.532 45.8933C238.532 49.8827 235.29 53.1206 231.295 53.1206H170.505C166.511 53.1206 163.269 49.8827 163.269 45.8933C163.269 41.9038 166.511 38.666 170.505 38.666Z" fill="#DBDFDF"/>
<path d="M170.505 67.5732H231.295C235.29 67.5732 238.532 70.8111 238.532 74.8005C238.532 78.79 235.29 82.0278 231.295 82.0278H170.505C166.511 82.0278 163.269 78.79 163.269 74.8005C163.269 70.8111 166.511 67.5732 170.505 67.5732Z" fill="#DBDFDF"/>
<path d="M95.2417 113.107H231.294C235.289 113.107 238.531 116.345 238.531 120.335C238.531 124.324 235.289 127.562 231.294 127.562H95.2417C91.247 127.562 88.0049 124.324 88.0049 120.335C88.0049 116.345 91.247 113.107 95.2417 113.107Z" fill="#DBDFDF"/>
<path d="M95.2417 153.578H191.294C195.289 153.578 198.531 156.816 198.531 160.805C198.531 164.795 195.289 168.033 191.294 168.033H95.2417C91.247 168.033 88.0049 164.795 88.0049 160.805C88.0049 156.816 91.247 153.578 95.2417 153.578Z" fill="#DBDFDF"/>
<rect x="72.4414" y="268.578" width="172.218" height="6" rx="3" fill="#D9D9D9"/>
<g clip-path="url(#clip0_168_3330)">
<path d="M203.492 231.357C190.292 248.382 183.779 226.865 175.824 230.031C166.83 233.611 164.692 254.554 170.652 253.403C176.613 252.252 164.104 230.166 157.734 239.868C151.364 249.571 150.877 260.726 142.895 254.056C104.877 222.289 125.362 189.628 141.467 205.506C151.66 215.556 145.232 260.506 131.205 283.92" stroke="#000001" stroke-width="4" stroke-linecap="round" stroke-linejoin="round"/>
</g>
<rect x="10.165" y="191.643" width="280" height="140.082" transform="rotate(-8 10.165 191.643)" stroke="#657DF2" stroke-width="4" stroke-linecap="round" stroke-linejoin="round" stroke-dasharray="22 22"/>
<circle cx="307.143" cy="292.866" r="8.5" transform="rotate(-8 307.143 292.866)" fill="#657DF2" stroke="#657DF2"/>
<circle cx="29.8681" cy="331.835" r="8.5" transform="rotate(-8 29.8681 331.835)" fill="#657DF2" stroke="#657DF2"/>
<circle cx="287.44" cy="152.674" r="8.5" transform="rotate(-8 287.44 152.674)" fill="#657DF2" stroke="#657DF2"/>
<circle cx="10.165" cy="191.642" r="8.5" transform="rotate(-8 10.165 191.642)" fill="#657DF2" stroke="#657DF2"/>
<defs>
<clipPath id="clip0_168_3330">
<rect width="97.1297" height="97.1297" fill="white" transform="translate(106.377 198.034) rotate(-10.9294)"/>
</clipPath>
</defs>
</svg>
