<svg width="62" height="62" viewBox="0 0 62 62" fill="none" xmlns="http://www.w3.org/2000/svg">
<g clip-path="url(#clip0_199_6201)">
<path fill-rule="evenodd" clip-rule="evenodd" d="M2.67592e-05 48.5921V13.4587C-0.00349969 11.6937 0.341557 9.94527 1.0154 8.31387C1.68923 6.68247 2.67859 5.20019 3.92669 3.95209C5.1748 2.70398 6.65708 1.71463 8.28848 1.04079C9.91988 0.366947 11.6683 0.0218909 13.4334 0.0254174H48.5667C50.3318 0.0218909 52.0802 0.366947 53.7116 1.04079C55.343 1.71463 56.8253 2.70398 58.0734 3.95209C59.3215 5.20019 60.3108 6.68247 60.9847 8.31387C61.6585 9.94527 62.0036 11.6937 62 13.4587V48.5921C62.0036 50.3572 61.6585 52.1056 60.9847 53.737C60.3108 55.3684 59.3215 56.8506 58.0734 58.0987C56.8253 59.3469 55.343 60.3362 53.7116 61.01C52.0802 61.6839 50.3318 62.0289 48.5667 62.0254H13.4334C9.87112 62.0238 6.45526 60.608 3.93637 58.0891C1.41749 55.5702 0.00166973 52.1543 2.67592e-05 48.5921Z" fill="white"/>
<path fill-rule="evenodd" clip-rule="evenodd" d="M11.3666 13.0461H18.3416C19.3609 13.0371 20.3434 13.4264 21.0799 14.1311C22.6816 15.5777 23.7666 16.3527 24.4382 16.3527C25.0582 16.3527 21.6482 19.2461 14.1566 25.0327C13.5295 25.5152 12.7797 25.8124 11.9924 25.8907C11.205 25.969 10.4114 25.8252 9.70159 25.4757C8.99173 25.1261 8.39395 24.5848 7.97596 23.9129C7.55797 23.2411 7.33648 22.4656 7.33658 21.6744V17.1277C7.33195 16.5948 7.43265 16.0661 7.6329 15.5722C7.83314 15.0783 8.129 14.6288 8.50346 14.2495C8.87793 13.8702 9.32363 13.5687 9.81497 13.3622C10.3063 13.1556 10.8336 13.0482 11.3666 13.0461Z" fill="#1AA6F7"/>
<path fill-rule="evenodd" clip-rule="evenodd" d="M20.3049 16.3008H50.6332C51.7016 16.3021 52.7259 16.7272 53.4814 17.4827C54.2368 18.2381 54.6619 19.2624 54.6632 20.3308V29.4241C54.6619 30.4925 54.2368 31.5168 53.4814 32.2722C52.7259 33.0277 51.7016 33.4527 50.6332 33.4541H20.3049C19.2365 33.4527 18.2122 33.0277 17.4568 32.2722C16.7013 31.5168 16.2763 30.4925 16.2749 29.4241V20.3308C16.285 19.2651 16.7129 18.2459 17.4664 17.4923C18.22 16.7387 19.2392 16.3109 20.3049 16.3008Z" fill="#1AA6F7"/>
<path fill-rule="evenodd" clip-rule="evenodd" d="M10.7982 18.7814H51.2015C51.3305 18.7813 51.4582 18.8066 51.5773 18.8559C51.6964 18.9052 51.8047 18.9775 51.8959 19.0687C51.987 19.1599 52.0593 19.2681 52.1086 19.3873C52.1579 19.5064 52.1833 19.6341 52.1832 19.763V34.9014C52.1833 35.0303 52.1579 35.158 52.1086 35.2771C52.0593 35.3963 51.987 35.5045 51.8959 35.5957C51.8047 35.6869 51.6964 35.7592 51.5773 35.8085C51.4582 35.8578 51.3305 35.8831 51.2015 35.883H10.7982C10.6693 35.8831 10.5416 35.8578 10.4224 35.8085C10.3033 35.7592 10.195 35.6869 10.1039 35.5957C10.0127 35.5045 9.94037 35.3963 9.89107 35.2771C9.84177 35.158 9.81644 35.0303 9.81653 34.9014V19.763C9.80771 19.6318 9.82706 19.5003 9.87328 19.3772C9.91949 19.2541 9.9915 19.1423 10.0845 19.0493C10.1775 18.9563 10.2892 18.8843 10.4123 18.8381C10.5354 18.7919 10.667 18.7726 10.7982 18.7814Z" fill="white"/>
<path fill-rule="evenodd" clip-rule="evenodd" d="M9.35143 20.3828H52.6481C53.1823 20.3835 53.6945 20.596 54.0722 20.9737C54.4499 21.3515 54.6624 21.8636 54.6631 22.3978V44.9245C54.6617 45.9929 54.2367 47.0171 53.4812 47.7726C52.7258 48.5281 51.7015 48.9531 50.6331 48.9545H11.3664C10.298 48.9531 9.27377 48.5281 8.5183 47.7726C7.76282 47.0171 7.33779 45.9929 7.33643 44.9245V22.3978C7.33707 21.8636 7.54958 21.3515 7.92732 20.9737C8.30507 20.596 8.81721 20.3835 9.35143 20.3828Z" fill="url(#paint0_linear_199_6201)"/>
</g>
<defs>
<linearGradient id="paint0_linear_199_6201" x1="30.9957" y1="48.9592" x2="30.9957" y2="20.3888" gradientUnits="userSpaceOnUse">
<stop stop-color="#1D77F2"/>
<stop offset="1" stop-color="#18C1FA"/>
</linearGradient>
<clipPath id="clip0_199_6201">
<rect width="62" height="62" fill="white"/>
</clipPath>
</defs>
</svg>
