<svg width="24" height="24" viewBox="0 0 24 24" fill="none" xmlns="http://www.w3.org/2000/svg">
<path d="M9.29289 10.7071C9.68342 11.0976 10.3166 11.0976 10.7071 10.7071C11.0976 10.3166 11.0976 9.68342 10.7071 9.29289L10 10L9.29289 10.7071ZM4.20711 2.79289C3.81658 2.40237 3.18342 2.40237 2.79289 2.79289C2.40237 3.18342 2.40237 3.81658 2.79289 4.20711L3.5 3.5L4.20711 2.79289ZM3.38783 3.38785L4.09493 4.09496L4.09493 4.09496L3.38783 3.38785ZM7.91064 4.09379C8.46071 4.14315 8.94665 3.73723 8.996 3.18716C9.04535 2.63708 8.63944 2.15115 8.08936 2.1018L8 3.09779L7.91064 4.09379ZM2.10183 8.08938C2.15119 8.63945 2.63713 9.04536 3.1872 8.996C3.73728 8.94664 4.14319 8.4607 4.09383 7.91062L3.09783 8L2.10183 8.08938ZM10 10L10.7071 9.29289L4.20711 2.79289L3.5 3.5L2.79289 4.20711L9.29289 10.7071L10 10ZM3.38783 3.38785L4.09493 4.09496C4.00156 4.18833 3.94546 4.18245 4.06397 4.1462C4.1582 4.11738 4.30368 4.08732 4.50424 4.06241C4.90338 4.01283 5.40961 3.9966 5.92846 4.00058C6.44119 4.00451 6.93835 4.02783 7.30937 4.05043C7.49422 4.0617 7.64624 4.07269 7.75135 4.0808C7.80388 4.08485 7.8446 4.08818 7.87176 4.09046C7.88533 4.0916 7.89551 4.09247 7.90206 4.09304C7.90534 4.09333 7.90771 4.09354 7.90915 4.09366C7.90987 4.09373 7.91036 4.09377 7.91061 4.09379C7.91073 4.0938 7.9108 4.09381 7.9108 4.09381C7.9108 4.09381 7.91076 4.09381 7.91077 4.09381C7.91071 4.0938 7.91064 4.09379 8 3.09779C8.08936 2.1018 8.08926 2.10179 8.08914 2.10178C8.08908 2.10177 8.08895 2.10176 8.08884 2.10175C8.0886 2.10173 8.0883 2.1017 8.08795 2.10167C8.08724 2.10161 8.08628 2.10152 8.08509 2.10142C8.08271 2.10121 8.07939 2.10091 8.07514 2.10055C8.06665 2.09981 8.05447 2.09876 8.03884 2.09745C8.00758 2.09483 7.96246 2.09115 7.90527 2.08673C7.79096 2.07791 7.62807 2.06614 7.43099 2.05414C7.03815 2.0302 6.50338 2.00493 5.9438 2.00064C5.39035 1.99639 4.78391 2.0123 4.25771 2.07766C3.9956 2.11022 3.72525 2.15834 3.47894 2.23368C3.25692 2.3016 2.93557 2.42589 2.68073 2.68074L3.38783 3.38785ZM3.09783 8C4.09383 7.91062 4.09383 7.91069 4.09384 7.91075C4.09384 7.91075 4.09384 7.91079 4.09384 7.91079C4.09384 7.91078 4.09383 7.91071 4.09382 7.91059C4.0938 7.91034 4.09376 7.90986 4.09369 7.90914C4.09357 7.9077 4.09336 7.90533 4.09307 7.90205C4.0925 7.89549 4.09163 7.88532 4.09049 7.87174C4.08821 7.84459 4.08488 7.80386 4.08083 7.75134C4.07271 7.64623 4.06172 7.49421 4.05046 7.30935C4.02785 6.93834 4.00452 6.44118 4.00058 5.92846C3.99659 5.4096 4.01282 4.90338 4.06239 4.50425C4.0873 4.30369 4.11736 4.15821 4.14618 4.06399C4.18243 3.94548 4.1883 4.00159 4.09493 4.09496L3.38783 3.38785L2.68073 2.68074C2.42587 2.93559 2.30157 3.25693 2.23366 3.47896C2.15831 3.72527 2.1102 3.99562 2.07764 4.25773C2.01229 4.78393 1.99639 5.39038 2.00064 5.94382C2.00494 6.5034 2.03022 7.03817 2.05416 7.43101C2.06617 7.62809 2.07794 7.79098 2.08676 7.90529C2.09118 7.96248 2.09486 8.0076 2.09749 8.03886C2.0988 8.05449 2.09984 8.06667 2.10058 8.07516C2.10095 8.0794 2.10124 8.08273 2.10145 8.08511C2.10156 8.0863 2.10164 8.08725 2.1017 8.08796C2.10174 8.08832 2.10176 8.08862 2.10178 8.08885C2.10179 8.08897 2.10181 8.0891 2.10181 8.08916C2.10182 8.08928 2.10183 8.08938 3.09783 8Z" fill="white"/>
<path d="M10.7071 14.7071C11.0976 14.3166 11.0976 13.6834 10.7071 13.2929C10.3166 12.9024 9.68342 12.9024 9.29289 13.2929L10 14L10.7071 14.7071ZM2.79289 19.7929C2.40237 20.1834 2.40237 20.8166 2.79289 21.2071C3.18342 21.5976 3.81658 21.5976 4.20711 21.2071L3.5 20.5L2.79289 19.7929ZM3.38783 20.6121L4.09493 19.905L4.09493 19.905L3.38783 20.6121ZM8.08936 21.8982C8.63944 21.8489 9.04535 21.3629 8.996 20.8128C8.94665 20.2628 8.46071 19.8569 7.91064 19.9062L8 20.9022L8.08936 21.8982ZM4.09383 16.0894C4.14319 15.5393 3.73728 15.0534 3.1872 15.004C2.63713 14.9546 2.15119 15.3605 2.10183 15.9106L3.09783 16L4.09383 16.0894ZM10 14L9.29289 13.2929L2.79289 19.7929L3.5 20.5L4.20711 21.2071L10.7071 14.7071L10 14ZM3.38783 20.6121L2.68073 21.3193C2.93557 21.5741 3.25691 21.6984 3.47894 21.7663C3.72525 21.8417 3.9956 21.8898 4.25771 21.9223C4.78391 21.9877 5.39035 22.0036 5.9438 21.9994C6.50338 21.9951 7.03815 21.9698 7.43099 21.9459C7.62807 21.9339 7.79096 21.9221 7.90527 21.9133C7.96246 21.9089 8.00758 21.9052 8.03884 21.9025C8.05447 21.9012 8.06665 21.9002 8.07514 21.8995C8.07939 21.8991 8.08271 21.8988 8.08509 21.8986C8.08628 21.8985 8.08724 21.8984 8.08795 21.8983C8.0883 21.8983 8.0886 21.8983 8.08884 21.8983C8.08895 21.8982 8.08908 21.8982 8.08914 21.8982C8.08926 21.8982 8.08936 21.8982 8 20.9022C7.91064 19.9062 7.91071 19.9062 7.91077 19.9062C7.91076 19.9062 7.91081 19.9062 7.9108 19.9062C7.9108 19.9062 7.91073 19.9062 7.91061 19.9062C7.91036 19.9062 7.90987 19.9063 7.90915 19.9063C7.90771 19.9065 7.90534 19.9067 7.90206 19.907C7.89551 19.9075 7.88533 19.9084 7.87176 19.9095C7.8446 19.9118 7.80388 19.9151 7.75135 19.9192C7.64624 19.9273 7.49422 19.9383 7.30937 19.9496C6.93835 19.9722 6.44119 19.9955 5.92846 19.9994C5.40961 20.0034 4.90338 19.9872 4.50424 19.9376C4.30368 19.9127 4.1582 19.8826 4.06397 19.8538C3.94546 19.8175 4.00156 19.8117 4.09493 19.905L3.38783 20.6121ZM3.09783 16C2.10183 15.9106 2.10182 15.9107 2.10181 15.9108C2.10181 15.9109 2.10179 15.911 2.10178 15.9111C2.10176 15.9114 2.10174 15.9117 2.1017 15.912C2.10164 15.9127 2.10156 15.9137 2.10145 15.9149C2.10124 15.9173 2.10095 15.9206 2.10058 15.9248C2.09984 15.9333 2.0988 15.9455 2.09749 15.9611C2.09486 15.9924 2.09118 16.0375 2.08676 16.0947C2.07794 16.209 2.06617 16.3719 2.05416 16.569C2.03022 16.9618 2.00494 17.4966 2.00064 18.0562C1.99639 18.6096 2.01229 19.2161 2.07764 19.7423C2.1102 20.0044 2.15831 20.2747 2.23366 20.521C2.30157 20.7431 2.42587 21.0644 2.68073 21.3193L3.38783 20.6121L4.09493 19.905C4.1883 19.9984 4.18243 20.0545 4.14618 19.936C4.11736 19.8418 4.0873 19.6963 4.06239 19.4958C4.01282 19.0966 3.99659 18.5904 4.00058 18.0715C4.00452 17.5588 4.02785 17.0617 4.05046 16.6906C4.06172 16.5058 4.07271 16.3538 4.08083 16.2487C4.08488 16.1961 4.08821 16.1554 4.09049 16.1283C4.09163 16.1147 4.0925 16.1045 4.09307 16.098C4.09336 16.0947 4.09357 16.0923 4.09369 16.0909C4.09376 16.0901 4.0938 16.0897 4.09382 16.0894C4.09383 16.0893 4.09384 16.0892 4.09384 16.0892C4.09384 16.0892 4.09384 16.0893 4.09384 16.0892C4.09383 16.0893 4.09383 16.0894 3.09783 16Z" fill="white"/>
<path d="M13.2929 9.29289C12.9024 9.68342 12.9024 10.3166 13.2929 10.7071C13.6834 11.0976 14.3166 11.0976 14.7071 10.7071L14 10L13.2929 9.29289ZM21.2071 4.20711C21.5976 3.81658 21.5976 3.18342 21.2071 2.79289C20.8166 2.40237 20.1834 2.40237 19.7929 2.79289L20.5 3.5L21.2071 4.20711ZM20.6122 3.38785L19.9051 4.09496L19.9051 4.09496L20.6122 3.38785ZM15.9106 2.1018C15.3606 2.15115 14.9546 2.63708 15.004 3.18716C15.0534 3.73723 15.5393 4.14315 16.0894 4.09379L16 3.09779L15.9106 2.1018ZM19.9062 7.91062C19.8568 8.4607 20.2627 8.94664 20.8128 8.996C21.3629 9.04536 21.8488 8.63945 21.8982 8.08938L20.9022 8L19.9062 7.91062ZM14 10L14.7071 10.7071L21.2071 4.20711L20.5 3.5L19.7929 2.79289L13.2929 9.29289L14 10ZM20.6122 3.38785L21.3193 2.68074C21.0644 2.42589 20.7431 2.3016 20.5211 2.23368C20.2748 2.15834 20.0044 2.11022 19.7423 2.07766C19.2161 2.0123 18.6096 1.99639 18.0562 2.00064C17.4966 2.00493 16.9619 2.0302 16.569 2.05414C16.3719 2.06614 16.209 2.07791 16.0947 2.08673C16.0375 2.09115 15.9924 2.09483 15.9612 2.09745C15.9455 2.09876 15.9334 2.09981 15.9249 2.10055C15.9206 2.10091 15.9173 2.10121 15.9149 2.10142C15.9137 2.10152 15.9128 2.10161 15.9121 2.10167C15.9117 2.1017 15.9114 2.10173 15.9112 2.10175C15.911 2.10176 15.9109 2.10177 15.9109 2.10178C15.9107 2.10179 15.9106 2.1018 16 3.09779C16.0894 4.09379 16.0893 4.0938 16.0892 4.09381C16.0892 4.09381 16.0892 4.09381 16.0892 4.09381C16.0892 4.09381 16.0893 4.0938 16.0894 4.09379C16.0896 4.09377 16.0901 4.09373 16.0908 4.09366C16.0923 4.09354 16.0947 4.09333 16.0979 4.09304C16.1045 4.09247 16.1147 4.0916 16.1282 4.09046C16.1554 4.08818 16.1961 4.08485 16.2486 4.0808C16.3538 4.07269 16.5058 4.0617 16.6906 4.05043C17.0616 4.02783 17.5588 4.00451 18.0715 4.00058C18.5904 3.9966 19.0966 4.01283 19.4958 4.06241C19.6963 4.08732 19.8418 4.11738 19.936 4.1462C20.0545 4.18245 19.9984 4.18833 19.9051 4.09496L20.6122 3.38785ZM20.9022 8C21.8982 8.08938 21.8982 8.08928 21.8982 8.08916C21.8982 8.0891 21.8982 8.08897 21.8982 8.08885C21.8982 8.08862 21.8983 8.08832 21.8983 8.08796C21.8984 8.08725 21.8984 8.0863 21.8986 8.08511C21.8988 8.08273 21.8991 8.0794 21.8994 8.07516C21.9002 8.06667 21.9012 8.05449 21.9025 8.03886C21.9051 8.0076 21.9088 7.96248 21.9132 7.90529C21.9221 7.79098 21.9338 7.62809 21.9458 7.43101C21.9698 7.03817 21.9951 6.5034 21.9994 5.94382C22.0036 5.39038 21.9877 4.78393 21.9224 4.25773C21.8898 3.99562 21.8417 3.72527 21.7663 3.47896C21.6984 3.25693 21.5741 2.93559 21.3193 2.68074L20.6122 3.38785L19.9051 4.09496C19.8117 4.00159 19.8176 3.94548 19.8538 4.06399C19.8826 4.15821 19.9127 4.30369 19.9376 4.50425C19.9872 4.90338 20.0034 5.4096 19.9994 5.92846C19.9955 6.44118 19.9722 6.93834 19.9495 7.30935C19.9383 7.49421 19.9273 7.64623 19.9192 7.75134C19.9151 7.80386 19.9118 7.84459 19.9095 7.87174C19.9084 7.88532 19.9075 7.89549 19.9069 7.90205C19.9066 7.90533 19.9064 7.9077 19.9063 7.90914C19.9062 7.90986 19.9062 7.91034 19.9062 7.91059C19.9062 7.91071 19.9062 7.91078 19.9062 7.91079C19.9062 7.91079 19.9062 7.91075 19.9062 7.91075C19.9062 7.91069 19.9062 7.91062 20.9022 8Z" fill="white"/>
<path d="M14.7071 13.2929C14.3166 12.9024 13.6834 12.9024 13.2929 13.2929C12.9024 13.6834 12.9024 14.3166 13.2929 14.7071L14 14L14.7071 13.2929ZM19.7929 21.2071C20.1834 21.5976 20.8166 21.5976 21.2071 21.2071C21.5976 20.8166 21.5976 20.1834 21.2071 19.7929L20.5 20.5L19.7929 21.2071ZM20.6122 20.6121L19.9051 19.905L19.9051 19.905L20.6122 20.6121ZM16.0894 19.9062C15.5393 19.8569 15.0534 20.2628 15.004 20.8128C14.9546 21.3629 15.3606 21.8489 15.9106 21.8982L16 20.9022L16.0894 19.9062ZM21.8982 15.9106C21.8488 15.3605 21.3629 14.9546 20.8128 15.004C20.2627 15.0534 19.8568 15.5393 19.9062 16.0894L20.9022 16L21.8982 15.9106ZM14 14L13.2929 14.7071L19.7929 21.2071L20.5 20.5L21.2071 19.7929L14.7071 13.2929L14 14ZM20.6122 20.6121L19.9051 19.905C19.9984 19.8117 20.0545 19.8175 19.936 19.8538C19.8418 19.8826 19.6963 19.9127 19.4958 19.9376C19.0966 19.9872 18.5904 20.0034 18.0715 19.9994C17.5588 19.9955 17.0616 19.9722 16.6906 19.9496C16.5058 19.9383 16.3538 19.9273 16.2486 19.9192C16.1961 19.9151 16.1554 19.9118 16.1282 19.9095C16.1147 19.9084 16.1045 19.9075 16.0979 19.907C16.0947 19.9067 16.0923 19.9065 16.0908 19.9063C16.0901 19.9063 16.0896 19.9062 16.0894 19.9062C16.0893 19.9062 16.0892 19.9062 16.0892 19.9062C16.0892 19.9062 16.0892 19.9062 16.0892 19.9062C16.0893 19.9062 16.0894 19.9062 16 20.9022C15.9106 21.8982 15.9107 21.8982 15.9109 21.8982C15.9109 21.8982 15.911 21.8982 15.9112 21.8983C15.9114 21.8983 15.9117 21.8983 15.9121 21.8983C15.9128 21.8984 15.9137 21.8985 15.9149 21.8986C15.9173 21.8988 15.9206 21.8991 15.9249 21.8995C15.9334 21.9002 15.9455 21.9012 15.9612 21.9025C15.9924 21.9052 16.0375 21.9089 16.0947 21.9133C16.209 21.9221 16.3719 21.9339 16.569 21.9459C16.9619 21.9698 17.4966 21.9951 18.0562 21.9994C18.6096 22.0036 19.2161 21.9877 19.7423 21.9223C20.0044 21.8898 20.2748 21.8417 20.5211 21.7663C20.7431 21.6984 21.0644 21.5741 21.3193 21.3193L20.6122 20.6121ZM20.9022 16C19.9062 16.0894 19.9062 16.0893 19.9062 16.0892C19.9062 16.0893 19.9062 16.0892 19.9062 16.0892C19.9062 16.0892 19.9062 16.0893 19.9062 16.0894C19.9062 16.0897 19.9062 16.0901 19.9063 16.0909C19.9064 16.0923 19.9066 16.0947 19.9069 16.098C19.9075 16.1045 19.9084 16.1147 19.9095 16.1283C19.9118 16.1554 19.9151 16.1961 19.9192 16.2487C19.9273 16.3538 19.9383 16.5058 19.9495 16.6906C19.9722 17.0617 19.9955 17.5588 19.9994 18.0715C20.0034 18.5904 19.9872 19.0966 19.9376 19.4958C19.9127 19.6963 19.8826 19.8418 19.8538 19.936C19.8176 20.0545 19.8117 19.9984 19.9051 19.905L20.6122 20.6121L21.3193 21.3193C21.5741 21.0644 21.6984 20.7431 21.7663 20.521C21.8417 20.2747 21.8898 20.0044 21.9224 19.7423C21.9877 19.2161 22.0036 18.6096 21.9994 18.0562C21.9951 17.4966 21.9698 16.9618 21.9458 16.569C21.9338 16.3719 21.9221 16.209 21.9132 16.0947C21.9088 16.0375 21.9051 15.9924 21.9025 15.9611C21.9012 15.9455 21.9002 15.9333 21.8994 15.9248C21.8991 15.9206 21.8988 15.9173 21.8986 15.9149C21.8984 15.9137 21.8984 15.9127 21.8983 15.912C21.8983 15.9117 21.8982 15.9114 21.8982 15.9111C21.8982 15.911 21.8982 15.9109 21.8982 15.9108C21.8982 15.9107 21.8982 15.9106 20.9022 16Z" fill="white"/>
</svg>
