<svg width="24" height="24" viewBox="0 0 24 24" fill="none" xmlns="http://www.w3.org/2000/svg">
<g clip-path="url(#clip0_445_6552)">
<path d="M23.7811 9.96979C23.7115 9.90006 23.6287 9.84474 23.5377 9.807C23.4466 9.76925 23.349 9.74983 23.2505 9.74983C23.1519 9.74983 23.0543 9.76925 22.9633 9.807C22.8722 9.84474 22.7895 9.90006 22.7199 9.96979L18.0005 14.6901L10.0608 6.75042L14.7811 2.03104C14.8508 1.96136 14.9061 1.87863 14.9438 1.78759C14.9815 1.69654 15.0009 1.59896 15.0009 1.50042C15.0009 1.40187 14.9815 1.30429 14.9438 1.21324C14.9061 1.1222 14.8508 1.03947 14.7811 0.969792C14.7114 0.900109 14.6287 0.844834 14.5377 0.807122C14.4466 0.76941 14.349 0.75 14.2505 0.75C14.1519 0.75 14.0544 0.76941 13.9633 0.807122C13.8723 0.844834 13.7895 0.900109 13.7199 0.969792L9.00048 5.6901C8.77355 5.91708 8.6254 6.21086 8.57782 6.52827C8.53023 6.84569 8.58571 7.17 8.73611 7.45354L6.75048 9.4401C6.46939 9.72138 6.31149 10.1028 6.31149 10.5004C6.31149 10.8981 6.46939 11.2795 6.75048 11.5607L7.19017 12.0004L1.71986 17.4698C1.62938 17.5602 1.56353 17.6723 1.52857 17.7953C1.4936 17.9183 1.49068 18.0483 1.52009 18.1727C1.54949 18.2972 1.61025 18.4121 1.69657 18.5065C1.7829 18.6009 1.89193 18.6716 2.0133 18.712L8.7633 20.962C8.83973 20.9876 8.91985 21.0006 9.00048 21.0004C9.099 21.0005 9.19658 20.9812 9.28762 20.9435C9.37867 20.9059 9.46141 20.8507 9.53111 20.781L12.7505 17.5607L13.1902 18.0004C13.4714 18.2815 13.8528 18.4394 14.2505 18.4394C14.6481 18.4394 15.0295 18.2815 15.3108 18.0004L17.2974 16.0148C17.5809 16.1652 17.9052 16.2207 18.2226 16.1731C18.54 16.1255 18.8338 15.9774 19.0608 15.7504L23.7811 11.031C23.8508 10.9614 23.9062 10.8787 23.9439 10.7876C23.9816 10.6966 24.0011 10.599 24.0011 10.5004C24.0011 10.4019 23.9816 10.3043 23.9439 10.2132C23.9062 10.1222 23.8508 10.0394 23.7811 9.96979ZM8.79798 19.3926L3.64173 17.6723L8.25048 13.0607L11.6902 16.5004L8.79798 19.3926ZM14.2505 16.9401L7.8108 10.5004L9.75048 8.56073L16.1902 15.0004L14.2505 16.9401Z" fill="white"/>
</g>
<defs>
<clipPath id="clip0_445_6552">
<rect width="24" height="24" fill="white"/>
</clipPath>
</defs>
</svg>
