<svg width="24" height="24" viewBox="0 0 24 24" fill="none" xmlns="http://www.w3.org/2000/svg">
<path opacity="0.2" d="M20.25 11.2506V20.2506H14.25V14.2506H9.75V20.2506H3.75V11.2506C3.74992 11.1521 3.76926 11.0545 3.8069 10.9635C3.84454 10.8724 3.89975 10.7897 3.96938 10.72L11.4694 3.21996C11.539 3.15023 11.6217 3.09491 11.7128 3.05717C11.8038 3.01943 11.9014 3 12 3C12.0986 3 12.1962 3.01943 12.2872 3.05717C12.3783 3.09491 12.461 3.15023 12.5306 3.21996L20.0306 10.72C20.1003 10.7897 20.1555 10.8724 20.1931 10.9635C20.2307 11.0545 20.2501 11.1521 20.25 11.2506Z" fill="#657DF2"/>
<path d="M20.5603 10.189L13.0603 2.68899C12.779 2.4079 12.3977 2.25 12 2.25C11.6024 2.25 11.221 2.4079 10.9397 2.68899L3.4397 10.189C3.29973 10.3279 3.18878 10.4933 3.1133 10.6755C3.03782 10.8577 2.99931 11.053 3.00001 11.2502V20.2502C3.00001 20.4492 3.07903 20.6399 3.21968 20.7806C3.36033 20.9212 3.5511 21.0002 3.75001 21.0002H9.75001C9.94892 21.0002 10.1397 20.9212 10.2803 20.7806C10.421 20.6399 10.5 20.4492 10.5 20.2502V15.0002H13.5V20.2502C13.5 20.4492 13.579 20.6399 13.7197 20.7806C13.8603 20.9212 14.0511 21.0002 14.25 21.0002H20.25C20.4489 21.0002 20.6397 20.9212 20.7803 20.7806C20.921 20.6399 21 20.4492 21 20.2502V11.2502C21.0007 11.053 20.9622 10.8577 20.8867 10.6755C20.8112 10.4933 20.7003 10.3279 20.5603 10.189ZM19.5 19.5002H15V14.2502C15 14.0513 14.921 13.8606 14.7803 13.7199C14.6397 13.5793 14.4489 13.5002 14.25 13.5002H9.75001C9.5511 13.5002 9.36033 13.5793 9.21968 13.7199C9.07903 13.8606 9.00001 14.0513 9.00001 14.2502V19.5002H4.50001V11.2502L12 3.75024L19.5 11.2502V19.5002Z" fill="#657DF2"/>
</svg>
