<svg width="24" height="24" viewBox="0 0 24 24" fill="none" xmlns="http://www.w3.org/2000/svg">
<path d="M6.59961 9.48047L6.59961 14.4964M10.3396 11.9194H6.60961M10.3396 9.48047V14.4964" stroke="white" stroke-miterlimit="10" stroke-linecap="round"/>
<path d="M15.4296 16.0946V14.5946M16.3996 14.5046H14.5596C14.0073 14.5046 13.5596 14.0569 13.5596 13.5046V10.5137C13.5596 9.96139 14.0073 9.51367 14.5596 9.51367H16.3996C16.9519 9.51367 17.3996 9.96139 17.3996 10.5137L17.3996 13.5046C17.3996 14.0569 16.9519 14.5046 16.3996 14.5046Z" stroke="white" stroke-miterlimit="10" stroke-linecap="round"/>
<path d="M2 12C2 7.28421 2 4.92632 3.46316 3.46316C4.92632 2 7.28421 2 12 2C16.7158 2 19.0737 2 20.5368 3.46316C22 4.92632 22 7.28421 22 12C22 16.7158 22 19.0737 20.5368 20.5368C19.0737 22 16.7158 22 12 22C7.28421 22 4.92632 22 3.46316 20.5368C2 19.0737 2 16.7158 2 12Z" stroke="white" stroke-width="2" stroke-linejoin="round"/>
</svg>
