<svg width="34" height="34" viewBox="0 0 34 34" fill="none" xmlns="http://www.w3.org/2000/svg">
<path d="M5.4485 0H28.5515C30.4463 0 31.1334 0.196917 31.8261 0.567375C32.5106 0.92968 33.0703 1.48941 33.4326 2.17387C33.8031 2.86662 34 3.55371 34 5.4485V28.5515C34 30.4463 33.8024 31.1334 33.4326 31.8261C33.0703 32.5106 32.5106 33.0703 31.8261 33.4326C31.1334 33.8031 30.4463 34 28.5515 34H5.4485C3.55371 34 2.86662 33.8024 2.17387 33.4326C1.4893 33.0701 0.929566 32.5101 0.567375 31.8254C0.196917 31.1334 0 30.4463 0 28.5515V5.4485C0 3.55371 0.196917 2.86662 0.567375 2.17387C0.929868 1.4893 1.48985 0.929566 2.17458 0.567375C2.86662 0.196917 3.55371 0 5.4485 0Z" fill="#780DEC"/>
<path d="M24.6712 16.572C24.2763 16.572 23.9561 16.2519 23.9561 15.8563V12.0997C23.9576 11.7044 23.8075 11.3235 23.5365 11.0356L19.2836 7.23467C19.1538 7.09616 18.9971 6.98558 18.8231 6.90968C18.6491 6.83378 18.4615 6.79415 18.2716 6.79322H12.03C11.2395 6.79322 10.5985 7.46738 10.5985 8.29809V9.83892C10.5985 10.0287 10.5231 10.2108 10.3889 10.345C10.2546 10.4793 10.0726 10.5547 9.88276 10.5547C9.69292 10.5547 9.51087 10.4793 9.37663 10.345C9.2424 10.2108 9.16699 10.0287 9.16699 9.83892V8.29809C9.1684 6.63597 10.4497 5.28906 12.0307 5.28906H18.2716C19.0311 5.28906 19.7596 5.6064 20.2955 6.17054L24.5492 9.9722C25.0903 10.5481 25.3902 11.3095 25.387 12.0997V15.8563C25.387 16.2512 25.0668 16.572 24.6712 16.572Z" fill="white"/>
<path d="M7 19.125C7 18.8266 7.1109 18.5405 7.30831 18.3295C7.50572 18.1185 7.77346 18 8.05263 18H25.9474C26.2265 18 26.4943 18.1185 26.6917 18.3295C26.8891 18.5405 27 18.8266 27 19.125V25.875C27 26.1734 26.8891 26.4595 26.6917 26.6705C26.4943 26.8815 26.2265 27 25.9474 27H8.05263C7.77346 27 7.50572 26.8815 7.30831 26.6705C7.1109 26.4595 7 26.1734 7 25.875V19.125Z" fill="white"/>
<path d="M13.3819 25C12.9073 25 12.4904 24.8968 12.1311 24.6905C11.7718 24.4796 11.4924 24.1862 11.2928 23.8102C11.0976 23.4342 11 22.9963 11 22.4966C11 22.1206 11.0554 21.779 11.1663 21.4718C11.2817 21.1646 11.4436 20.901 11.652 20.6809C11.8649 20.4608 12.1178 20.2934 12.4105 20.1788C12.7033 20.0596 13.0271 20 13.3819 20C13.8565 20 14.2713 20.1032 14.6261 20.3095C14.9854 20.5158 15.2649 20.807 15.4645 21.1829C15.6641 21.5543 15.7639 21.9922 15.7639 22.4966C15.7639 22.8725 15.7062 23.2141 15.5909 23.5213C15.48 23.8285 15.3181 24.0945 15.1052 24.3191C14.8967 24.5392 14.6461 24.7088 14.3533 24.8281C14.0606 24.9427 13.7368 25 13.3819 25ZM13.3819 23.9409C13.617 23.9409 13.8166 23.8835 13.9807 23.7689C14.1449 23.6543 14.2713 23.4892 14.36 23.2737C14.4487 23.0582 14.4931 22.7992 14.4931 22.4966C14.4931 22.0426 14.3955 21.6896 14.2003 21.4374C14.0051 21.1852 13.7323 21.0591 13.3819 21.0591C13.1513 21.0591 12.9517 21.1165 12.7831 21.2311C12.619 21.3411 12.4926 21.5039 12.4039 21.7194C12.3152 21.9303 12.2708 22.1894 12.2708 22.4966C12.2708 22.9505 12.3684 23.3058 12.5636 23.5626C12.7587 23.8148 13.0315 23.9409 13.3819 23.9409Z" fill="#780DEC"/>
<path d="M18.8553 25C18.3363 25 17.8906 24.8968 17.518 24.6905C17.1454 24.4842 16.8593 24.193 16.6597 23.8171C16.4645 23.4411 16.3669 23.0009 16.3669 22.4966C16.3669 22.1206 16.4224 21.779 16.5333 21.4718C16.6486 21.1646 16.8127 20.901 17.0256 20.6809C17.243 20.4608 17.5047 20.2934 17.8107 20.1788C18.1212 20.0596 18.4694 20 18.8553 20C19.0594 20 19.27 20.0252 19.4874 20.0757C19.7092 20.1215 19.9043 20.1926 20.0729 20.2889C20.1971 20.3576 20.2836 20.4448 20.3324 20.5502C20.3812 20.6557 20.3967 20.7634 20.379 20.8735C20.3656 20.9835 20.3279 21.0821 20.2658 21.1692C20.2037 21.2563 20.1239 21.3159 20.0263 21.348C19.9287 21.3755 19.8223 21.3595 19.707 21.2999C19.5739 21.2357 19.4408 21.1875 19.3078 21.1554C19.1791 21.1188 19.0438 21.1004 18.9019 21.1004C18.6269 21.1004 18.3962 21.1554 18.2099 21.2655C18.0281 21.3709 17.8906 21.5268 17.7974 21.7332C17.7043 21.9395 17.6577 22.1939 17.6577 22.4966C17.6577 22.7992 17.7043 23.0559 17.7974 23.2669C17.8906 23.4732 18.0281 23.6314 18.2099 23.7414C18.3962 23.8469 18.6269 23.8996 18.9019 23.8996C19.0172 23.8996 19.1414 23.8858 19.2745 23.8583C19.4076 23.8262 19.5384 23.7781 19.667 23.7139C19.8001 23.6543 19.9176 23.6382 20.0197 23.6657C20.1261 23.6933 20.2104 23.7483 20.2725 23.8308C20.339 23.9133 20.3812 24.0096 20.3989 24.1197C20.4167 24.2251 20.4011 24.3306 20.3523 24.436C20.308 24.5415 20.2281 24.6263 20.1128 24.6905C19.9576 24.7868 19.7646 24.8624 19.534 24.9175C19.3077 24.9725 19.0815 25 18.8553 25Z" fill="#780DEC"/>
<path d="M21.6795 24.9862C21.4844 24.9862 21.3336 24.9312 21.2271 24.8212C21.1207 24.7066 21.0674 24.5484 21.0674 24.3466V20.7153C21.0674 20.5089 21.1207 20.3508 21.2271 20.2407C21.338 20.1307 21.491 20.0757 21.6862 20.0757H23.3229C23.8552 20.0757 24.2655 20.2109 24.5538 20.4814C24.8466 20.7474 24.993 21.1188 24.993 21.5956C24.993 21.9028 24.9264 22.171 24.7934 22.4003C24.6647 22.6249 24.4762 22.7992 24.2278 22.923C23.9839 23.0422 23.6822 23.1018 23.3229 23.1018L23.3762 22.978H23.6955C23.8863 22.978 24.0548 23.0261 24.2012 23.1224C24.3476 23.2141 24.4696 23.3563 24.5671 23.5488L24.8998 24.1678C24.9708 24.3008 25.004 24.4315 24.9996 24.5598C24.9952 24.6836 24.9464 24.7868 24.8532 24.8693C24.7645 24.9473 24.6337 24.9862 24.4607 24.9862C24.2877 24.9862 24.1458 24.9496 24.0349 24.8762C23.9284 24.8028 23.833 24.6882 23.7488 24.5323L23.1433 23.3838C23.0901 23.2829 23.0213 23.2141 22.937 23.1774C22.8572 23.1362 22.7641 23.1155 22.6576 23.1155H22.2917V24.3466C22.2917 24.5484 22.2407 24.7066 22.1386 24.8212C22.0366 24.9312 21.8836 24.9862 21.6795 24.9862ZM22.2917 22.2215H23.1034C23.3385 22.2215 23.5181 22.1733 23.6423 22.077C23.7665 21.9807 23.8286 21.8317 23.8286 21.63C23.8286 21.4374 23.7665 21.293 23.6423 21.1967C23.5181 21.0958 23.3385 21.0454 23.1034 21.0454H22.2917V22.2215Z" fill="#780DEC"/>
<path fill-rule="evenodd" clip-rule="evenodd" d="M9 29V16H10V29H9Z" fill="white"/>
<path fill-rule="evenodd" clip-rule="evenodd" d="M9 27V18H10V27H9Z" fill="#780DEC"/>
<path fill-rule="evenodd" clip-rule="evenodd" d="M7 28.475C7 28.3358 7.06078 28.2022 7.16898 28.1038C7.27717 28.0053 7.42391 27.95 7.57692 27.95H11.4231C11.5761 27.95 11.7228 28.0053 11.831 28.1038C11.9392 28.2022 12 28.3358 12 28.475C12 28.6142 11.9392 28.7478 11.831 28.8462C11.7228 28.9447 11.5761 29 11.4231 29H7.57692C7.42391 29 7.27717 28.9447 7.16898 28.8462C7.06078 28.7478 7 28.6142 7 28.475ZM7 15.525C7 15.3858 7.06078 15.2522 7.16898 15.1538C7.27717 15.0553 7.42391 15 7.57692 15H11.4231C11.5761 15 11.7228 15.0553 11.831 15.1538C11.9392 15.2522 12 15.3858 12 15.525C12 15.6642 11.9392 15.7978 11.831 15.8962C11.7228 15.9947 11.5761 16.05 11.4231 16.05H7.57692C7.42391 16.05 7.27717 15.9947 7.16898 15.8962C7.06078 15.7978 7 15.6642 7 15.525Z" fill="white"/>
<path d="M18.335 5.28906L21.8609 8.81499L24.6816 12.3409H20.0979C19.6304 12.3409 19.1819 12.1552 18.8513 11.8246C18.5207 11.4939 18.335 11.0455 18.335 10.578V5.28906Z" fill="white"/>
</svg>
