<svg width="70" height="70" viewBox="0 0 70 70" fill="none" xmlns="http://www.w3.org/2000/svg">
<g clip-path="url(#clip0_198_5348)">
<path d="M48.5498 30.4668C49.7484 30.4668 50.1835 30.5918 50.623 30.8262C51.0627 31.0607 51.4068 31.4061 51.6406 31.8438C51.8744 32.2814 52 32.7169 52 33.918V48.5498C52 49.7484 51.8757 50.1835 51.6406 50.623C51.4106 51.056 51.056 51.4106 50.623 51.6406C50.1835 51.875 49.7491 52 48.5498 52H33.917C32.7184 52 32.2833 51.8757 31.8438 51.6406C31.4041 51.4055 31.0627 51.0607 30.8262 50.623C30.5898 50.1855 30.4668 49.749 30.4668 48.5498L30.4678 41.5703H36.8291C38.4792 41.5703 39.0778 41.3986 39.6807 41.0762C40.2765 40.7604 40.7635 40.2722 41.0781 39.6758C41.4004 39.075 41.5722 38.4767 41.5723 36.8271V30.4668H48.5498ZM43.1396 42.0303C42.8332 41.7239 42.3367 41.7239 42.0303 42.0303C41.7239 42.3367 41.7239 42.8332 42.0303 43.1396L45.9209 47.0312H44.8262C44.393 47.0314 44.042 47.3822 44.042 47.8154C44.042 48.2486 44.393 48.6004 44.8262 48.6006H47.8154C48.2488 48.6006 48.6006 48.2488 48.6006 47.8154V44.8262C48.6004 44.393 48.2486 44.042 47.8154 44.042C47.3822 44.042 47.0314 44.393 47.0312 44.8262V45.9209L43.1396 42.0303Z" fill="#D43400"/>
<path d="M37.9893 18C39.3134 18 39.7938 18.1385 40.2793 18.3975C40.7588 18.6505 41.15 19.0445 41.4023 19.5225C41.6613 20.0051 41.7998 20.4893 41.7998 21.8135V37.9863C41.7998 39.3142 41.662 39.7938 41.4023 40.2793C41.1493 40.7559 40.7589 41.15 40.2793 41.4023C39.7938 41.6613 39.3142 41.7998 37.9893 41.7998H21.8135C20.4894 41.7998 20.006 41.662 19.5234 41.4023C19.0439 41.1493 18.6527 40.7552 18.4004 40.2793C18.1385 39.7945 18 39.315 18 37.9873V21.8135C18 20.4895 18.1385 20.006 18.3975 19.5234C18.6505 19.044 19.0446 18.653 19.5225 18.3984C20.0006 18.1439 20.4887 18 21.8135 18H37.9893ZM35.7412 27.8525C35.3853 27.8526 35.0586 27.9189 34.7607 28.0518C34.4702 28.1772 34.2194 28.3577 34.0088 28.5938C33.8054 28.8299 33.6455 29.1143 33.5293 29.4463C33.413 29.7785 33.3545 30.152 33.3545 30.5654C33.3545 31.1114 33.4524 31.5873 33.6484 31.9932C33.8519 32.3992 34.1322 32.7165 34.4883 32.9453C34.8443 33.1667 35.2617 33.2783 35.7412 33.2783C36.1335 33.2783 36.4969 33.182 36.8311 32.9902C37.0934 32.8338 37.2856 32.6426 37.4092 32.418V32.9238C37.4091 33.3224 37.2965 33.6143 37.0713 33.7988C36.8533 33.9907 36.5222 34.0859 36.0791 34.0859C35.8975 34.0859 35.6755 34.0638 35.4141 34.0195C35.1527 33.9826 34.8623 33.8983 34.543 33.7656C34.3831 33.7066 34.2372 33.7022 34.1064 33.7539C33.9757 33.813 33.87 33.9058 33.79 34.0312C33.7175 34.1566 33.6782 34.2973 33.6709 34.4521C33.6637 34.6069 33.703 34.7545 33.79 34.8945C33.8772 35.0348 34.0266 35.142 34.2373 35.2158C34.4915 35.3191 34.793 35.3966 35.1416 35.4482C35.4904 35.5073 35.865 35.5371 36.2646 35.5371C37.2382 35.5371 37.9866 35.2971 38.5098 34.8174C39.0329 34.345 39.2949 33.6361 39.2949 32.6914V28.8594C39.2948 28.5422 39.211 28.2986 39.0439 28.1289C38.8841 27.9592 38.6517 27.8741 38.3467 27.874C38.0415 27.874 37.8013 27.9591 37.627 28.1289C37.4932 28.2648 37.4134 28.4482 37.3867 28.6787C37.2641 28.4653 37.0789 28.2852 36.8311 28.1396C36.5114 27.9479 36.1479 27.8525 35.7412 27.8525ZM21.5078 25.5156C21.1882 25.5157 20.941 25.6041 20.7666 25.7812C20.5922 25.9584 20.5049 26.2171 20.5049 26.5566V32.4805C20.5049 32.8126 20.5923 33.0713 20.7666 33.2559C20.941 33.433 21.1882 33.5214 21.5078 33.5215C21.8419 33.5215 22.0926 33.4329 22.2598 33.2559C22.4269 33.0713 22.5107 32.8127 22.5107 32.4805V26.5566C22.5107 26.2171 22.4234 25.9584 22.249 25.7812C22.0819 25.6043 21.8346 25.5156 21.5078 25.5156ZM30.6367 27.8525C30.23 27.8525 29.8595 27.9556 29.5254 28.1621C29.2459 28.335 29.025 28.5625 28.8623 28.8438C28.737 28.5377 28.5557 28.3024 28.3154 28.1396C28.0393 27.9477 27.7048 27.8526 27.3125 27.8525C26.8983 27.8525 26.5386 27.9521 26.2334 28.1514C26.002 28.3004 25.8146 28.4895 25.6709 28.7188C25.6501 28.4693 25.5728 28.2726 25.4375 28.1289C25.2777 27.9592 25.0453 27.8741 24.7402 27.874C24.435 27.874 24.1984 27.9591 24.0312 28.1289C23.8715 28.2986 23.7921 28.5422 23.792 28.8594V32.5254C23.7921 32.8498 23.8752 33.0969 24.042 33.2666C24.2091 33.4364 24.4458 33.5215 24.751 33.5215C25.4048 33.5215 25.7313 33.1895 25.7314 32.5254V30.4658C25.7314 30.1115 25.8014 29.8384 25.9395 29.6465C26.0848 29.4546 26.2882 29.3584 26.5498 29.3584C26.7674 29.3585 26.9232 29.4284 27.0176 29.5684C27.112 29.7086 27.1601 29.9375 27.1602 30.2549V32.5254C27.1602 32.8498 27.2433 33.0969 27.4102 33.2666C27.5773 33.4364 27.8174 33.5215 28.1299 33.5215C28.4423 33.5215 28.6825 33.4364 28.8496 33.2666C29.0164 33.0969 29.0995 32.8498 29.0996 32.5254V30.4658C29.0996 30.1118 29.1688 29.8384 29.3066 29.6465C29.452 29.4546 29.6599 29.3584 29.9287 29.3584C30.1463 29.3585 30.3021 29.4284 30.3965 29.5684C30.4909 29.7086 30.539 29.9375 30.5391 30.2549V32.5254C30.5391 32.8498 30.6222 33.0969 30.7891 33.2666C30.9562 33.4364 31.1929 33.5215 31.498 33.5215C31.8104 33.5214 32.0497 33.4363 32.2168 33.2666C32.3911 33.0969 32.4784 32.85 32.4785 32.5254V30.1992C32.4785 29.6679 32.4095 29.2287 32.2715 28.8818C32.1407 28.5276 31.9407 28.2688 31.6719 28.1064C31.4031 27.9368 31.058 27.8525 30.6367 27.8525ZM36.3408 29.3027C36.6604 29.3027 36.9146 29.4135 37.1035 29.6348C37.2924 29.8562 37.3877 30.1668 37.3877 30.5654C37.3877 30.831 37.344 31.0601 37.2568 31.252C37.1696 31.4364 37.049 31.5803 36.8965 31.6836C36.7439 31.7794 36.5587 31.8271 36.3408 31.8271C36.0284 31.8271 35.7778 31.7165 35.5889 31.4951C35.4 31.2737 35.3057 30.9639 35.3057 30.5654C35.3057 30.2997 35.3458 30.0742 35.4258 29.8896C35.5129 29.6978 35.6362 29.554 35.7959 29.458C35.9557 29.3547 36.1374 29.3028 36.3408 29.3027Z" fill="#FC5C04"/>
</g>
<defs>
<clipPath id="clip0_198_5348">
<rect width="34" height="34" fill="white" transform="translate(18 18)"/>
</clipPath>
</defs>
</svg>
