<svg width="62" height="60" viewBox="0 0 62 60" fill="none" xmlns="http://www.w3.org/2000/svg">
<ellipse cx="20.8337" cy="58.8327" rx="1.16667" ry="1.16667" fill="white"/>
<ellipse cx="40.6663" cy="56.9993" rx="0.333334" ry="0.333332" fill="white"/>
<ellipse cx="3.33366" cy="44.3327" rx="1.66667" ry="1.66667" fill="white"/>
<circle cx="31.833" cy="30.5" r="23.5" fill="white"/>
<ellipse cx="55.1663" cy="53.4993" rx="0.833334" ry="0.833332" fill="white"/>
<circle cx="56.8333" cy="36.8333" r="0.833334" fill="white"/>
<ellipse cx="0.333333" cy="24.9993" rx="0.333333" ry="0.333334" fill="white"/>
<rect width="24" height="24" transform="translate(20 18)" fill="white"/>
<path d="M42.477 26.5125C42.477 26.5228 42.477 26.5322 42.4704 26.5425L40.3442 36.2803C40.2787 36.6232 40.0957 36.9325 39.8267 37.155C39.5577 37.3775 39.2195 37.4991 38.8704 37.4991H25.1295C24.7806 37.4989 24.4426 37.3772 24.1738 37.1547C23.905 36.9323 23.7221 36.623 23.6567 36.2803L21.5304 26.5425C21.5304 26.5322 21.5257 26.5228 21.5239 26.5125C21.4657 26.1901 21.5146 25.8575 21.6633 25.5655C21.8119 25.2736 22.052 25.0383 22.347 24.8957C22.6419 24.753 22.9754 24.7109 23.2966 24.7757C23.6177 24.8404 23.9088 25.0086 24.1254 25.2544L27.282 28.6566L30.6382 21.1294C30.6384 21.1262 30.6384 21.1231 30.6382 21.12C30.7582 20.8597 30.9503 20.6392 31.1917 20.4847C31.4331 20.3302 31.7138 20.248 32.0004 20.248C32.2871 20.248 32.5677 20.3302 32.8091 20.4847C33.0505 20.6392 33.2426 20.8597 33.3626 21.12C33.3624 21.1231 33.3624 21.1262 33.3626 21.1294L36.7189 28.6566L39.8754 25.2544C40.0925 25.0104 40.3832 24.8439 40.7035 24.7802C41.0237 24.7165 41.3561 24.759 41.6499 24.9014C41.9438 25.0437 42.1833 25.278 42.3319 25.5688C42.4804 25.8596 42.5301 26.1909 42.4732 26.5125H42.477Z" fill="url(#paint0_linear_200_10436)"/>
<ellipse cx="59.5" cy="9.16602" rx="2.5" ry="2.5" fill="white"/>
<ellipse cx="35.5003" cy="1.49935" rx="0.833332" ry="0.833333" fill="white"/>
<ellipse cx="6.66634" cy="3.33333" rx="3.33333" ry="3.33333" fill="white"/>
<defs>
<linearGradient id="paint0_linear_200_10436" x1="31.9981" y1="20.248" x2="31.9981" y2="37.4991" gradientUnits="userSpaceOnUse">
<stop stop-color="#FFCC00"/>
<stop offset="1" stop-color="#FFAE00"/>
</linearGradient>
</defs>
</svg>
