<svg width="18" height="16" viewBox="0 0 18 16" fill="none" xmlns="http://www.w3.org/2000/svg">
<path d="M17.4336 14.7203L13.0586 5.97031C13.0067 5.86651 12.9269 5.77922 12.8282 5.71821C12.7294 5.6572 12.6157 5.62489 12.4996 5.62489C12.3836 5.62489 12.2698 5.6572 12.1711 5.71821C12.0723 5.77922 11.9925 5.86651 11.9406 5.97031L10.2445 9.36328C8.91507 9.28852 7.63593 8.8293 6.5625 8.04141C7.82194 6.69645 8.58504 4.96219 8.72578 3.125H10.625C10.7908 3.125 10.9497 3.05915 11.0669 2.94194C11.1842 2.82473 11.25 2.66576 11.25 2.5C11.25 2.33424 11.1842 2.17527 11.0669 2.05806C10.9497 1.94085 10.7908 1.875 10.625 1.875H6.25V0.625C6.25 0.45924 6.18415 0.300268 6.06694 0.183058C5.94973 0.065848 5.79076 0 5.625 0C5.45924 0 5.30027 0.065848 5.18306 0.183058C5.06585 0.300268 5 0.45924 5 0.625V1.875H0.625C0.45924 1.875 0.300268 1.94085 0.183058 2.05806C0.065848 2.17527 0 2.33424 0 2.5C0 2.66576 0.065848 2.82473 0.183058 2.94194C0.300268 3.05915 0.45924 3.125 0.625 3.125H7.47109C7.33225 4.65685 6.68199 6.09743 5.625 7.21484C4.96653 6.52005 4.46088 5.69505 4.14062 4.79297C4.11429 4.71426 4.07255 4.64159 4.01782 4.57919C3.9631 4.51679 3.8965 4.46592 3.82191 4.42953C3.74731 4.39315 3.66622 4.37199 3.58336 4.36728C3.5005 4.36258 3.41753 4.37442 3.3393 4.40213C3.26106 4.42983 3.18913 4.47284 3.12769 4.52864C3.06626 4.58444 3.01656 4.65192 2.98148 4.72714C2.9464 4.80236 2.92666 4.88381 2.9234 4.96674C2.92014 5.04967 2.93343 5.13242 2.9625 5.21016C3.33537 6.26474 3.92271 7.23062 4.6875 8.04688C3.50997 8.91218 2.08627 9.37762 0.625 9.375C0.45924 9.375 0.300268 9.44085 0.183058 9.55806C0.065848 9.67527 0 9.83424 0 10C0 10.1658 0.065848 10.3247 0.183058 10.4419C0.300268 10.5592 0.45924 10.625 0.625 10.625C2.43796 10.627 4.19896 10.0195 5.625 8.9C6.78873 9.80927 8.17793 10.3848 9.64375 10.5648L7.56562 14.7203C7.5289 14.7937 7.50698 14.8736 7.50114 14.9555C7.4953 15.0374 7.50564 15.1196 7.53158 15.1975C7.58396 15.3548 7.69667 15.4848 7.84492 15.559C7.99317 15.6332 8.16482 15.6454 8.3221 15.593C8.47938 15.5407 8.60942 15.4279 8.68359 15.2797L9.76094 13.125H15.2383L16.3156 15.2797C16.3676 15.3835 16.4474 15.4708 16.5462 15.5318C16.645 15.5928 16.7589 15.6251 16.875 15.625C16.9815 15.6249 17.0863 15.5977 17.1793 15.5457C17.2723 15.4938 17.3505 15.419 17.4065 15.3284C17.4624 15.2377 17.4943 15.1343 17.499 15.0279C17.5038 14.9214 17.4813 14.8156 17.4336 14.7203ZM10.3859 11.875L12.5 7.64766L14.6133 11.875H10.3859Z" fill="#657DF2"/>
</svg>
