<svg width="20" height="20" viewBox="0 0 20 20" fill="none" xmlns="http://www.w3.org/2000/svg">
<path opacity="0.2" d="M6.25 8.125V16.25H2.5C2.33424 16.25 2.17527 16.1842 2.05806 16.0669C1.94085 15.9497 1.875 15.7908 1.875 15.625V8.75C1.875 8.58424 1.94085 8.42527 2.05806 8.30806C2.17527 8.19085 2.33424 8.125 2.5 8.125H6.25Z" fill="#657DF2"/>
<path d="M18.2812 6.25938C18.1053 6.05994 17.8888 5.90023 17.6464 5.79086C17.4039 5.68148 17.141 5.62495 16.875 5.625H12.5V4.375C12.5 3.5462 12.1708 2.75134 11.5847 2.16529C10.9987 1.57924 10.2038 1.25 9.375 1.25C9.25889 1.24992 9.14505 1.28218 9.04625 1.34317C8.94744 1.40417 8.86758 1.49148 8.81562 1.59531L5.86406 7.5H2.5C2.16848 7.5 1.85054 7.6317 1.61612 7.86612C1.3817 8.10054 1.25 8.41848 1.25 8.75V15.625C1.25 15.9565 1.3817 16.2745 1.61612 16.5089C1.85054 16.7433 2.16848 16.875 2.5 16.875H15.9375C16.3943 16.8752 16.8354 16.7085 17.1781 16.4065C17.5208 16.1044 17.7413 15.6876 17.7984 15.2344L18.7359 7.73438C18.7692 7.47033 18.7458 7.20224 18.6674 6.94792C18.589 6.6936 18.4574 6.45888 18.2812 6.25938ZM2.5 8.75H5.625V15.625H2.5V8.75ZM17.4953 7.57812L16.5578 15.0781C16.5388 15.2292 16.4653 15.3681 16.351 15.4688C16.2368 15.5695 16.0898 15.6251 15.9375 15.625H6.875V8.27266L9.74297 2.53594C10.168 2.62101 10.5505 2.85075 10.8253 3.18605C11.1 3.52135 11.2501 3.9415 11.25 4.375V6.25C11.25 6.41576 11.3158 6.57473 11.4331 6.69194C11.5503 6.80915 11.7092 6.875 11.875 6.875H16.875C16.9637 6.87497 17.0514 6.89382 17.1322 6.93028C17.2131 6.96675 17.2852 7.02001 17.3439 7.08652C17.4026 7.15303 17.4464 7.23126 17.4725 7.31602C17.4986 7.40078 17.5064 7.49013 17.4953 7.57812Z" fill="#657DF2"/>
</svg>
