<svg width="70" height="70" viewBox="0 0 70 70" fill="none" xmlns="http://www.w3.org/2000/svg">
<path d="M35.1318 17.998C36.2664 17.998 36.6811 18.1152 37.0967 18.3389C37.5067 18.557 37.8424 18.8928 38.0605 19.3027C38.2824 19.7184 38.4014 20.1297 38.4014 21.2676V35.1299C38.4014 36.2645 38.2824 36.6791 38.0605 37.0947C37.8424 37.5048 37.5067 37.8404 37.0967 38.0586C36.681 38.2804 36.2678 38.3994 35.1318 38.3994H21.2666C20.1325 38.3994 19.7182 38.2803 19.3027 38.0586C18.8929 37.8403 18.5569 37.5047 18.3389 37.0947C18.1171 36.6792 17.998 36.2657 17.998 35.1299V21.2646C17.9981 20.1306 18.1178 19.7162 18.3389 19.3008C18.5585 18.8922 18.8941 18.5566 19.3027 18.3369C19.7182 18.1153 20.1313 17.9991 21.2666 17.999V17.998H35.1318ZM23.1348 21.9326C22.8028 21.6007 22.2646 21.6007 21.9326 21.9326C21.6008 22.2645 21.6008 22.8019 21.9326 23.1338L26.1475 27.3496H24.9619C24.4925 27.3496 24.1123 27.7308 24.1123 28.2002C24.1125 28.6695 24.4926 29.0498 24.9619 29.0498H28.2002C28.6694 29.0497 29.0496 28.6694 29.0498 28.2002V24.9619C29.0498 24.4926 28.6695 24.1115 28.2002 24.1113C27.7308 24.1113 27.3496 24.4925 27.3496 24.9619V26.1475L23.1348 21.9326Z" fill="#0074D2"/>
<path d="M48.3696 29.333C49.6336 29.333 50.0905 29.4662 50.5522 29.7119C51.009 29.9527 51.3818 30.3264 51.6226 30.7832C51.8718 31.2449 52.0015 31.7039 52.0015 32.9658V48.3672C52.0014 49.6312 51.8711 50.0881 51.6226 50.5498C51.3818 51.0064 51.0088 51.3794 50.5522 51.6201C50.0905 51.8694 49.6336 51.999 48.3696 51.999H32.9683C31.708 51.999 31.2473 51.8685 30.7856 51.6201C30.3288 51.3793 29.9552 51.0056 29.7144 50.5488C29.4679 50.0871 29.3355 49.6303 29.3354 48.3662V32.9658C29.3354 31.7055 29.4659 31.2449 29.7144 30.7832C29.9552 30.3264 30.3288 29.9527 30.7856 29.7119C31.2473 29.4656 31.7065 29.333 32.9683 29.333H48.3696ZM39.5337 38.6826C39.0643 38.6826 38.6831 39.0638 38.6831 39.5332V44.0664C38.6832 44.5358 39.0643 44.916 39.5337 44.916C40.0029 44.9158 40.3832 44.5356 40.3833 44.0664V41.585L46.8657 48.0674C47.1977 48.3991 47.736 48.3993 48.0679 48.0674C48.3997 47.7355 48.3996 47.1972 48.0679 46.8652L41.5854 40.3828H44.0669C44.5361 40.3827 44.9164 40.0024 44.9165 39.5332C44.9165 39.0639 44.5362 38.6828 44.0669 38.6826H39.5337Z" fill="#068FFF"/>
</svg>
