<svg width="21" height="21" viewBox="0 0 21 21" fill="none" xmlns="http://www.w3.org/2000/svg">
<path d="M1 10.5C1 6.02166 1 3.78249 2.39124 2.39124C3.78249 1 6.02166 1 10.5 1C14.9783 1 17.2175 1 18.6088 2.39124C20 3.78249 20 6.02166 20 10.5C20 14.9783 20 17.2175 18.6088 18.6088C17.2175 20 14.9783 20 10.5 20C6.02166 20 3.78249 20 2.39124 18.6088C1 17.2175 1 14.9783 1 10.5Z" stroke="white" stroke-width="2"/>
<path d="M14.1311 5.91383L14.3579 4.93989V4.93989L14.1311 5.91383ZM6.86891 5.91383L7.09575 6.88776L6.86891 5.91383ZM5.85492 6.30063L6.53549 7.03331L6.53549 7.03331L5.85492 6.30063ZM4.5 7.72222C4.5 8.27451 4.94772 8.72222 5.5 8.72222C6.05228 8.72222 6.5 8.27451 6.5 7.72222H5.5H4.5ZM5.64671 6.56291L4.77874 6.06628L4.77874 6.06628L5.64671 6.56291ZM15.1451 6.30063L15.8256 5.56795L15.8256 5.56794L15.1451 6.30063ZM14.5 7.72222C14.5 8.27451 14.9477 8.72222 15.5 8.72222C16.0523 8.72222 16.5 8.27451 16.5 7.72222H15.5H14.5ZM15.3533 6.56291L14.4853 7.05954L14.4853 7.05954L15.3533 6.56291ZM9.5 15.5C9.5 16.0523 9.94772 16.5 10.5 16.5C11.0523 16.5 11.5 16.0523 11.5 15.5H10.5H9.5ZM12.1667 16.5C12.719 16.5 13.1667 16.0523 13.1667 15.5C13.1667 14.9477 12.719 14.5 12.1667 14.5V15.5V16.5ZM8.83333 14.5C8.28105 14.5 7.83333 14.9477 7.83333 15.5C7.83333 16.0523 8.28105 16.5 8.83333 16.5V15.5V14.5ZM10.5 5.5V6.5C11.6782 6.5 12.819 6.63501 13.9043 6.88776L14.1311 5.91383L14.3579 4.93989C13.1242 4.65256 11.8312 4.5 10.5 4.5V5.5ZM6.86891 5.91383L7.09575 6.88776C8.18095 6.63501 9.32178 6.5 10.5 6.5V5.5V4.5C9.16879 4.5 7.87575 4.65256 6.64207 4.93989L6.86891 5.91383ZM6.86891 5.91383L6.64207 4.93989C6.20131 5.04255 5.62744 5.14709 5.17435 5.56795L5.85492 6.30063L6.53549 7.03331C6.51673 7.05074 6.50584 7.04605 6.57456 7.02196C6.67168 6.9879 6.80987 6.95434 7.09575 6.88776L6.86891 5.91383ZM5.5 7.72222H6.5C6.5 7.40163 6.50116 7.23412 6.51333 7.11295C6.5231 7.01572 6.53384 7.02603 6.51467 7.05954L5.64671 6.56291L4.77874 6.06628C4.61287 6.35619 4.55026 6.6452 4.52335 6.91303C4.49884 7.15693 4.5 7.44087 4.5 7.72222H5.5ZM5.85492 6.30063L5.17435 5.56795C5.02371 5.70787 4.88085 5.88783 4.77874 6.06628L5.64671 6.56291L6.51467 7.05954C6.51266 7.06306 6.51262 7.0628 6.51505 7.05926C6.51736 7.05589 6.52069 7.05132 6.52477 7.04618C6.52885 7.04104 6.53255 7.03676 6.5353 7.03375C6.5382 7.03058 6.53846 7.03056 6.53549 7.03331L5.85492 6.30063ZM14.1311 5.91383L13.9043 6.88776C14.1901 6.95434 14.3283 6.9879 14.4254 7.02196C14.4942 7.04605 14.4833 7.05074 14.4645 7.03331L15.1451 6.30063L15.8256 5.56794C15.3726 5.14709 14.7987 5.04255 14.3579 4.93989L14.1311 5.91383ZM15.5 7.72222H16.5C16.5 7.44087 16.5012 7.15693 16.4767 6.91303C16.4497 6.6452 16.3871 6.35619 16.2213 6.06628L15.3533 6.56291L14.4853 7.05954C14.4662 7.02603 14.4769 7.01572 14.4867 7.11295C14.4988 7.23412 14.5 7.40163 14.5 7.72222H15.5ZM15.1451 6.30063L14.4645 7.03331C14.4615 7.03055 14.4618 7.03058 14.4647 7.03375C14.4675 7.03676 14.4712 7.04104 14.4752 7.04618C14.4793 7.05132 14.4826 7.05589 14.485 7.05926C14.4874 7.06279 14.4873 7.06305 14.4853 7.05954L15.3533 6.56291L16.2213 6.06629C16.1192 5.88783 15.9763 5.70787 15.8256 5.56795L15.1451 6.30063ZM10.5 5.5H9.5V15.5H10.5H11.5V5.5H10.5ZM12.1667 15.5V14.5H8.83333V15.5V16.5H12.1667V15.5Z" fill="white"/>
</svg>
