<svg width="62" height="62" viewBox="0 0 62 62" fill="none" xmlns="http://www.w3.org/2000/svg">
<path d="M47.5333 0H14.4667C6.47695 0 0 6.47695 0 14.4667V47.5333C0 55.5231 6.47695 62 14.4667 62H47.5333C55.5231 62 62 55.5231 62 47.5333V14.4667C62 6.47695 55.5231 0 47.5333 0Z" fill="white"/>
<g style="mix-blend-mode:multiply">
<path d="M39.2662 41.3341C39.2662 36.7685 35.5651 33.0674 30.9996 33.0674C26.434 33.0674 22.7329 36.7685 22.7329 41.3341V50.1174C22.7329 54.6829 26.434 58.3841 30.9996 58.3841C35.5651 58.3841 39.2662 54.6829 39.2662 50.1174V41.3341Z" fill="#58B3E4"/>
</g>
<g style="mix-blend-mode:multiply">
<path d="M20.9247 39.5255C25.4903 39.5255 29.1914 35.8244 29.1914 31.2589C29.1914 26.6933 25.4903 22.9922 20.9247 22.9922H12.1414C7.57585 22.9922 3.87474 26.6933 3.87474 31.2589C3.87474 35.8244 7.57585 39.5255 12.1414 39.5255H20.9247Z" fill="#E084AE"/>
</g>
<g style="mix-blend-mode:multiply">
<path d="M39.2662 12.4005C39.2662 7.8349 35.5651 4.13379 30.9996 4.13379C26.434 4.13379 22.7329 7.8349 22.7329 12.4005V21.1838C22.7329 25.7493 26.434 29.4505 30.9996 29.4505C35.5651 29.4505 39.2662 25.7493 39.2662 21.1838V12.4005Z" fill="#FFB92E"/>
</g>
<g style="mix-blend-mode:multiply">
<path d="M49.8583 39.5255C54.4239 39.5255 58.125 35.8244 58.125 31.2589C58.125 26.6933 54.4239 22.9922 49.8583 22.9922H41.075C36.5094 22.9922 32.8083 26.6933 32.8083 31.2589C32.8083 35.8244 36.5094 39.5255 41.075 39.5255H49.8583Z" fill="#BEDB4D"/>
</g>
<g style="mix-blend-mode:multiply">
<path d="M29.4304 44.4034C32.6587 41.1751 32.6587 35.9409 29.4304 32.7126C26.202 29.4843 20.9679 29.4843 17.7395 32.7126L11.5288 38.9234C8.30045 42.1517 8.30045 47.3859 11.5288 50.6142C14.7571 53.8425 19.9913 53.8425 23.2196 50.6142L29.4304 44.4034Z" fill="#AE8ED0"/>
</g>
<g style="mix-blend-mode:multiply">
<path d="M50.0969 23.7364C53.3252 20.5081 53.3252 15.2739 50.0969 12.0456C46.8685 8.81728 41.6344 8.81728 38.406 12.0456L32.1953 18.2564C28.967 21.4847 28.967 26.7189 32.1953 29.9472C35.4236 33.1755 40.6578 33.1755 43.8861 29.9472L50.0969 23.7364Z" fill="#FEE302"/>
</g>
<g style="mix-blend-mode:multiply">
<path d="M11.5286 23.7364C8.30027 20.5081 8.30027 15.2739 11.5286 12.0456C14.7569 8.81728 19.9911 8.81728 23.2194 12.0456L29.4302 18.2564C32.6585 21.4847 32.6585 26.7189 29.4302 29.9472C26.2019 33.1755 20.9677 33.1755 17.7394 29.9472L11.5286 23.7364Z" fill="#FA8554"/>
</g>
<g style="mix-blend-mode:multiply">
<path d="M32.1951 44.4034C28.9668 41.1751 28.9668 35.9409 32.1951 32.7126C35.4234 29.4843 40.6576 29.4843 43.8859 32.7126L50.0967 38.9234C53.325 42.1517 53.325 47.3859 50.0967 50.6142C46.8684 53.8425 41.6342 53.8425 38.4059 50.6142L32.1951 44.4034Z" fill="#60CBA5"/>
</g>
</svg>
