<svg width="24" height="24" viewBox="0 0 24 24" fill="none" xmlns="http://www.w3.org/2000/svg">
<path d="M9.13 2.5C6.47 2.56 4.91 2.81 3.85 3.87C2.92 4.8 2.6 6.11 2.5 8.2" stroke="white" stroke-width="2" stroke-linecap="round" stroke-linejoin="round"/>
<path d="M14.8699 2.5C17.5399 2.56 19.0899 2.81 20.1599 3.87C21.0899 4.8 21.3999 6.1 21.5099 8.2" stroke="white" stroke-width="2" stroke-linecap="round" stroke-linejoin="round"/>
<path d="M14.8699 21.5008C17.5399 21.4408 19.0899 21.1908 20.1599 20.1308C21.0899 19.2008 21.3999 17.9008 21.5099 15.8008" stroke="white" stroke-width="2" stroke-linecap="round" stroke-linejoin="round"/>
<path d="M9.12999 21.5008C6.45999 21.4408 4.90999 21.1908 3.83999 20.1308C2.90999 19.2008 2.59999 17.9008 2.48999 15.8008" stroke="white" stroke-width="2" stroke-linecap="round" stroke-linejoin="round"/>
<path d="M14.5 14.5L13.875 13.25M13.875 13.25L11.925 9.5L10.125 13.25M13.875 13.25H10.125M9.5 14.5L10.125 13.25" stroke="white" stroke-linecap="round" stroke-linejoin="round"/>
</svg>
