<svg width="24" height="24" viewBox="0 0 24 24" fill="none" xmlns="http://www.w3.org/2000/svg">
<rect width="24" height="24" rx="8" fill="black" fill-opacity="0.6"/>
<path d="M17 17.0742C17.4142 17.0742 17.75 17.41 17.75 17.8242C17.75 18.2384 17.4142 18.5742 17 18.5742H7C6.58579 18.5742 6.25 18.2384 6.25 17.8242C6.25 17.41 6.58579 17.0742 7 17.0742H17Z" fill="#FFC967"/>
<path d="M12.0127 4.81641C12.2582 4.81648 12.5001 4.87671 12.7168 4.99219C12.9335 5.1077 13.1189 5.27466 13.2559 5.47852L15.2617 8.49609L17.0215 7.47852C17.2677 7.32447 17.5545 7.24747 17.8447 7.25781C18.135 7.26818 18.4158 7.36492 18.6504 7.53613C18.8957 7.69537 19.0874 7.92553 19.2002 8.19531C19.3129 8.46498 19.342 8.76252 19.2832 9.04883L18.1699 14.3711C18.1095 14.711 17.9304 15.0186 17.6641 15.2383C17.3976 15.4581 17.0612 15.5756 16.7158 15.5703H7.26465C6.91929 15.5756 6.58284 15.4581 6.31641 15.2383C6.05016 15.0186 5.87099 14.711 5.81055 14.3711L4.74219 9.04883C4.66048 8.7582 4.6707 8.44926 4.77246 8.16504C4.87435 7.88072 5.06274 7.63458 5.31055 7.46191C5.55822 7.28943 5.85347 7.19833 6.15527 7.20117C6.45729 7.20407 6.75165 7.30113 6.99609 7.47852L8.71191 8.50391L10.7686 5.47852C10.9055 5.27466 11.0909 5.10771 11.3076 4.99219C11.5244 4.87664 11.767 4.81641 12.0127 4.81641ZM12.0146 9.60645C11.0835 9.60651 10.3282 10.3618 10.3281 11.293C10.3281 12.2242 11.0834 12.9794 12.0146 12.9795C12.9459 12.9795 13.7012 12.2242 13.7012 11.293C13.7011 10.3618 12.9459 9.60645 12.0146 9.60645Z" fill="url(#paint0_linear_280_8070)"/>
<defs>
<linearGradient id="paint0_linear_280_8070" x1="12.0001" y1="4.81641" x2="14.5083" y2="17.0336" gradientUnits="userSpaceOnUse">
<stop stop-color="#FFBD12"/>
<stop offset="1" stop-color="#FF991B"/>
</linearGradient>
</defs>
</svg>
