<svg width="20" height="20" viewBox="0 0 20 20" fill="none" xmlns="http://www.w3.org/2000/svg">
<path opacity="0.2" d="M16.875 4.375V8.75C16.875 16.25 10 18.125 10 18.125C10 18.125 3.125 16.25 3.125 8.75V4.375C3.125 4.20924 3.19085 4.05027 3.30806 3.93306C3.42527 3.81585 3.58424 3.75 3.75 3.75H16.25C16.4158 3.75 16.5747 3.81585 16.6919 3.93306C16.8092 4.05027 16.875 4.20924 16.875 4.375Z" fill="#657DF2"/>
<path d="M16.25 3.125H3.75C3.41848 3.125 3.10054 3.2567 2.86612 3.49112C2.6317 3.72554 2.5 4.04348 2.5 4.375V8.75C2.5 12.8687 4.49375 15.3648 6.16641 16.7336C7.96797 18.207 9.76016 18.7078 9.83828 18.7281C9.9457 18.7573 10.059 18.7573 10.1664 18.7281C10.2445 18.7078 12.0344 18.207 13.8383 16.7336C15.5063 15.3648 17.5 12.8687 17.5 8.75V4.375C17.5 4.04348 17.3683 3.72554 17.1339 3.49112C16.8995 3.2567 16.5815 3.125 16.25 3.125ZM16.25 8.75C16.25 11.6461 15.1828 13.9969 13.0781 15.7359C12.1619 16.4904 11.12 17.0775 10 17.4703C8.89469 17.0843 7.86558 16.5077 6.95938 15.7664C4.82969 14.0242 3.75 11.6641 3.75 8.75V4.375H16.25V8.75Z" fill="#657DF2"/>
</svg>
