<svg width="32" height="32" viewBox="0 0 32 32" fill="none" xmlns="http://www.w3.org/2000/svg">
<path d="M11.1304 0H3.47826C2.55577 0 1.67106 0.366459 1.01876 1.01876C0.366459 1.67106 0 2.55577 0 3.47826V11.1304C0 12.0529 0.366459 12.9376 1.01876 13.5899C1.67106 14.2422 2.55577 14.6087 3.47826 14.6087H11.1304C12.0529 14.6087 12.9376 14.2422 13.5899 13.5899C14.2422 12.9376 14.6087 12.0529 14.6087 11.1304V3.47826C14.6087 2.55577 14.2422 1.67106 13.5899 1.01876C12.9376 0.366459 12.0529 0 11.1304 0ZM10.4348 10.4348H4.17391V4.17391H10.4348V10.4348ZM11.1304 17.3913H3.47826C2.55577 17.3913 1.67106 17.7578 1.01876 18.4101C0.366459 19.0624 0 19.9471 0 20.8696V28.5217C0 29.4442 0.366459 30.3289 1.01876 30.9812C1.67106 31.6335 2.55577 32 3.47826 32H11.1304C12.0529 32 12.9376 31.6335 13.5899 30.9812C14.2422 30.3289 14.6087 29.4442 14.6087 28.5217V20.8696C14.6087 19.9471 14.2422 19.0624 13.5899 18.4101C12.9376 17.7578 12.0529 17.3913 11.1304 17.3913ZM10.4348 27.8261H4.17391V21.5652H10.4348V27.8261ZM28.5217 0H20.8696C19.9471 0 19.0624 0.366459 18.4101 1.01876C17.7578 1.67106 17.3913 2.55577 17.3913 3.47826V11.1304C17.3913 12.0529 17.7578 12.9376 18.4101 13.5899C19.0624 14.2422 19.9471 14.6087 20.8696 14.6087H28.5217C29.4442 14.6087 30.3289 14.2422 30.9812 13.5899C31.6335 12.9376 32 12.0529 32 11.1304V3.47826C32 2.55577 31.6335 1.67106 30.9812 1.01876C30.3289 0.366459 29.4442 0 28.5217 0ZM27.8261 10.4348H21.5652V4.17391H27.8261V10.4348ZM17.3913 23.6522V19.4783C17.3913 18.9248 17.6112 18.3939 18.0026 18.0026C18.3939 17.6112 18.9248 17.3913 19.4783 17.3913C20.0318 17.3913 20.5626 17.6112 20.954 18.0026C21.3453 18.3939 21.5652 18.9248 21.5652 19.4783V23.6522C21.5652 24.2057 21.3453 24.7365 20.954 25.1279C20.5626 25.5193 20.0318 25.7391 19.4783 25.7391C18.9248 25.7391 18.3939 25.5193 18.0026 25.1279C17.6112 24.7365 17.3913 24.2057 17.3913 23.6522ZM32 22.2609C32 22.8144 31.7801 23.3452 31.3887 23.7366C30.9974 24.128 30.4665 24.3478 29.913 24.3478H27.8261V29.913C27.8261 30.4665 27.6062 30.9974 27.2148 31.3887C26.8235 31.7801 26.2926 32 25.7391 32H19.4783C18.9248 32 18.3939 31.7801 18.0026 31.3887C17.6112 30.9974 17.3913 30.4665 17.3913 29.913C17.3913 29.3595 17.6112 28.8287 18.0026 28.4373C18.3939 28.046 18.9248 27.8261 19.4783 27.8261H23.6522V19.4783C23.6522 18.9248 23.8721 18.3939 24.2634 18.0026C24.6548 17.6112 25.1856 17.3913 25.7391 17.3913C26.2926 17.3913 26.8235 17.6112 27.2148 18.0026C27.6062 18.3939 27.8261 18.9248 27.8261 19.4783V20.1739H29.913C30.4665 20.1739 30.9974 20.3938 31.3887 20.7852C31.7801 21.1765 32 21.7074 32 22.2609Z" fill="#00A4E4"/>
</svg>
