<svg width="356" height="338" viewBox="0 0 356 338" fill="none" xmlns="http://www.w3.org/2000/svg">
<g clip-path="url(#clip0_167_4247)">
<path d="M118.691 90.745L152.176 248.278C152.51 249.85 152.228 251.411 151.494 252.705C150.635 254.223 149.153 255.378 147.311 255.769L42.2887 278.092C40.447 278.484 38.6237 278.032 37.2208 276.994C36.0241 276.111 35.1319 274.799 34.7978 273.228L1.31313 115.694C0.587624 112.281 2.76455 108.929 6.17777 108.203L111.2 85.8803C114.613 85.1548 117.965 87.3318 118.691 90.745Z" fill="#169EE8"/>
<path d="M103.905 183.896C111.957 182.185 117.098 174.27 115.386 166.218C113.674 158.165 105.76 153.025 97.7075 154.737C89.6554 156.448 84.5154 164.363 86.2269 172.415C87.9384 180.468 95.8534 185.608 103.905 183.896Z" fill="#FDDA40"/>
<path d="M121.576 261.239L42.288 278.093C40.4463 278.484 38.623 278.032 37.22 276.995L66.6748 213.066L101.667 243.784L101.672 243.787L121.576 261.239Z" fill="#CECECE"/>
<path d="M151.493 252.705C150.633 254.223 149.151 255.378 147.31 255.769L90.5821 267.827L101.671 243.787L101.674 243.782L113.063 219.029L151.493 252.705Z" fill="#EBEBEB"/>
</g>
<g clip-path="url(#clip1_167_4247)">
<path d="M243.436 45.9971L349.173 64.6414C352.609 65.2474 354.902 68.5216 354.296 71.958L326.33 230.564C325.724 234 322.449 236.293 319.013 235.687L213.276 217.043C209.839 216.437 207.547 213.163 208.153 209.726L236.119 51.1202C236.725 47.6838 239.999 45.3912 243.436 45.9971Z" fill="white"/>
<path d="M259.388 64.6426L281.157 68.4812C284.594 69.0871 286.886 72.3613 286.28 75.7977L282.442 97.5672C281.836 101.004 278.562 103.296 275.125 102.69L253.356 98.8517C249.919 98.2458 247.627 94.9716 248.233 91.5352L252.071 69.7657C252.677 66.3293 255.951 64.0367 259.388 64.6426Z" fill="#DBDFDF"/>
<path d="M296.525 76.8026L329.179 82.5604C331.325 82.9388 332.76 84.9875 332.381 87.1333C332.003 89.2791 329.954 90.7136 327.808 90.3352L295.154 84.5774C293.008 84.1991 291.574 82.1504 291.952 80.0046C292.331 77.8587 294.379 76.4243 296.525 76.8026Z" fill="#DBDFDF"/>
<path d="M293.783 92.3524L326.437 98.1103C328.583 98.4886 330.017 100.537 329.639 102.683C329.261 104.829 327.212 106.263 325.066 105.885L292.412 100.127C290.266 99.7489 288.832 97.7002 289.21 95.5544C289.588 93.4085 291.637 91.9741 293.783 92.3524Z" fill="#DBDFDF"/>
<path d="M249.036 109.714L322.119 122.6C324.265 122.979 325.699 125.027 325.321 127.173C324.943 129.319 322.894 130.753 320.748 130.375L247.665 117.489C245.519 117.11 244.085 115.062 244.463 112.916C244.841 110.77 246.89 109.335 249.036 109.714Z" fill="#DBDFDF"/>
<path d="M245.197 131.483L318.28 144.37C320.426 144.748 321.86 146.797 321.482 148.943C321.104 151.089 319.055 152.523 316.909 152.145L243.826 139.258C241.68 138.88 240.246 136.831 240.624 134.685C241.002 132.539 243.051 131.105 245.197 131.483Z" fill="#DBDFDF"/>
<path d="M241.358 153.253L314.441 166.139C316.587 166.518 318.022 168.566 317.643 170.712C317.265 172.858 315.216 174.293 313.07 173.914L239.987 161.028C237.841 160.649 236.407 158.601 236.785 156.455C237.164 154.309 239.212 152.874 241.358 153.253Z" fill="#DBDFDF"/>
<path d="M237.52 175.022L310.603 187.909C312.749 188.287 314.184 190.336 313.805 192.482C313.427 194.628 311.378 196.062 309.232 195.684L236.149 182.797C234.003 182.419 232.569 180.37 232.947 178.224C233.326 176.078 235.374 174.644 237.52 175.022Z" fill="#DBDFDF"/>
<path d="M233.681 196.792L306.764 209.678C308.91 210.057 310.345 212.105 309.966 214.251C309.588 216.397 307.539 217.832 305.394 217.453L232.31 204.567C230.165 204.188 228.73 202.14 229.108 199.994C229.487 197.848 231.535 196.414 233.681 196.792Z" fill="#DBDFDF"/>
</g>
<rect x="87.6963" width="180" height="338" rx="28" fill="black"/>
<path d="M259.696 312C259.696 321.941 251.637 330 241.696 330H113.696C103.755 330 95.6963 321.941 95.6963 312V26C95.6963 16.0589 103.755 8 113.696 8H131.696C135.01 8 137.696 10.6863 137.696 14C137.696 17.3137 140.383 20 143.696 20H211.696C215.01 20 217.696 17.3137 217.696 14C217.696 10.6863 220.383 8 223.696 8H241.696C251.637 8 259.696 16.0589 259.696 26V312Z" fill="#414042"/>
<circle cx="177.696" cy="300" r="18" fill="white"/>
<circle cx="177.696" cy="300" r="13.0088" fill="white" stroke="#414042" stroke-width="1.9823"/>
<g clip-path="url(#clip2_167_4247)">
<path d="M124.012 57H231.381C234.87 57 237.696 59.8263 237.696 63.3158V224.368C237.696 227.858 234.87 230.684 231.381 230.684H124.012C120.523 230.684 117.696 227.858 117.696 224.368V63.3158C117.696 59.8263 120.523 57 124.012 57Z" fill="white"/>
<path d="M142.959 72.5918H165.065C168.554 72.5918 171.38 75.4181 171.38 78.9076V101.013C171.38 104.502 168.554 107.329 165.065 107.329H142.959C139.47 107.329 136.644 104.502 136.644 101.013V78.9076C136.644 75.4181 139.47 72.5918 142.959 72.5918Z" fill="#DBDFDF"/>
<path d="M181.644 78.1182H214.802C216.98 78.1182 218.749 79.8866 218.749 82.0655C218.749 84.2445 216.98 86.0129 214.802 86.0129H181.644C179.465 86.0129 177.696 84.2445 177.696 82.0655C177.696 79.8866 179.465 78.1182 181.644 78.1182Z" fill="#DBDFDF"/>
<path d="M181.644 93.9072H214.802C216.98 93.9072 218.749 95.6756 218.749 97.8546C218.749 100.034 216.98 101.802 214.802 101.802H181.644C179.465 101.802 177.696 100.034 177.696 97.8546C177.696 95.6756 179.465 93.9072 181.644 93.9072Z" fill="#DBDFDF"/>
<path d="M140.591 118.776H214.801C216.98 118.776 218.749 120.545 218.749 122.724C218.749 124.903 216.98 126.671 214.801 126.671H140.591C138.412 126.671 136.644 124.903 136.644 122.724C136.644 120.545 138.412 118.776 140.591 118.776Z" fill="#DBDFDF"/>
<path d="M140.591 140.881H214.801C216.98 140.881 218.749 142.649 218.749 144.828C218.749 147.007 216.98 148.776 214.801 148.776H140.591C138.412 148.776 136.644 147.007 136.644 144.828C136.644 142.649 138.412 140.881 140.591 140.881Z" fill="#DBDFDF"/>
<path d="M140.591 162.986H214.801C216.98 162.986 218.749 164.755 218.749 166.934C218.749 169.113 216.98 170.881 214.801 170.881H140.591C138.412 170.881 136.644 169.113 136.644 166.934C136.644 164.755 138.412 162.986 140.591 162.986Z" fill="#DBDFDF"/>
<path d="M140.591 185.092H214.801C216.98 185.092 218.749 186.86 218.749 189.039C218.749 191.218 216.98 192.987 214.801 192.987H140.591C138.412 192.987 136.644 191.218 136.644 189.039C136.644 186.86 138.412 185.092 140.591 185.092Z" fill="#DBDFDF"/>
<path d="M140.591 207.197H214.801C216.98 207.197 218.749 208.966 218.749 211.145C218.749 213.324 216.98 215.092 214.801 215.092H140.591C138.412 215.092 136.644 213.324 136.644 211.145C136.644 208.966 138.412 207.197 140.591 207.197Z" fill="#DBDFDF"/>
</g>
<rect x="111.696" y="125" width="132" height="48" fill="url(#paint0_linear_167_4247)"/>
<rect x="103.696" y="125" width="148" height="4" rx="2" fill="#FF0000"/>
<defs>
<linearGradient id="paint0_linear_167_4247" x1="177.696" y1="125" x2="177.696" y2="173" gradientUnits="userSpaceOnUse">
<stop stop-color="#FF0000"/>
<stop offset="1" stop-color="#FF0000" stop-opacity="0"/>
</linearGradient>
<clipPath id="clip0_167_4247">
<rect width="120" height="173.684" fill="white" transform="translate(0 109.517) rotate(-12)"/>
</clipPath>
<clipPath id="clip1_167_4247">
<rect width="120" height="173.684" fill="white" transform="translate(237.216 44.9004) rotate(10)"/>
</clipPath>
<clipPath id="clip2_167_4247">
<rect width="120" height="173.684" fill="white" transform="translate(117.696 57)"/>
</clipPath>
</defs>
</svg>
