<svg width="24" height="24" viewBox="0 0 24 24" fill="none" xmlns="http://www.w3.org/2000/svg">
<path d="M19.6923 5.30965H17.0269L15.7163 3.34426C15.6461 3.23902 15.551 3.15273 15.4395 3.09302C15.328 3.03331 15.2034 3.00203 15.0769 3.00195H8.92308C8.79657 3.00203 8.67203 3.03331 8.56049 3.09302C8.44896 3.15273 8.35387 3.23902 8.28365 3.34426L6.97212 5.30965H4.30769C3.69565 5.30965 3.10868 5.55278 2.67591 5.98555C2.24313 6.41833 2 7.0053 2 7.61734V18.3866C2 18.9986 2.24313 19.5856 2.67591 20.0184C3.10868 20.4511 3.69565 20.6943 4.30769 20.6943H19.6923C20.3043 20.6943 20.8913 20.4511 21.3241 20.0184C21.7569 19.5856 22 18.9986 22 18.3866V7.61734C22 7.0053 21.7569 6.41833 21.3241 5.98555C20.8913 5.55278 20.3043 5.30965 19.6923 5.30965ZM20.4615 18.3866C20.4615 18.5906 20.3805 18.7862 20.2362 18.9305C20.092 19.0748 19.8963 19.1558 19.6923 19.1558H4.30769C4.10368 19.1558 3.90802 19.0748 3.76376 18.9305C3.61951 18.7862 3.53846 18.5906 3.53846 18.3866V7.61734C3.53846 7.41333 3.61951 7.21767 3.76376 7.07341C3.90802 6.92915 4.10368 6.84811 4.30769 6.84811H7.38462C7.51129 6.84819 7.63602 6.81699 7.74774 6.75727C7.85946 6.69756 7.9547 6.61117 8.025 6.5058L9.33462 4.54041H14.6644L15.975 6.5058C16.0453 6.61117 16.1405 6.69756 16.2523 6.75727C16.364 6.81699 16.4887 6.84819 16.6154 6.84811H19.6923C19.8963 6.84811 20.092 6.92915 20.2362 7.07341C20.3805 7.21767 20.4615 7.41333 20.4615 7.61734V18.3866ZM16.6154 9.1558V11.4635C16.6154 11.6675 16.5343 11.8632 16.3901 12.0074C16.2458 12.1517 16.0502 12.2327 15.8462 12.2327H13.5385C13.3344 12.2327 13.1388 12.1517 12.9945 12.0074C12.8503 11.8632 12.7692 11.6675 12.7692 11.4635C12.7692 11.2595 12.8503 11.0638 12.9945 10.9196C13.1388 10.7753 13.3344 10.6943 13.5385 10.6943H14.0337C13.5023 10.2287 12.8274 9.95945 12.1216 9.93128C11.4157 9.90311 10.7216 10.1178 10.1548 10.5395C9.99172 10.6621 9.78659 10.715 9.58454 10.6864C9.38249 10.6578 9.20007 10.5501 9.0774 10.387C8.95474 10.224 8.90189 10.0188 8.93047 9.81678C8.95905 9.61473 9.06673 9.43231 9.22981 9.30965C10.0849 8.67304 11.1333 8.35061 12.1983 8.39667C13.2634 8.44274 14.28 8.85448 15.0769 9.56253V9.1558C15.0769 8.95179 15.158 8.75613 15.3022 8.61187C15.4465 8.46761 15.6421 8.38657 15.8462 8.38657C16.0502 8.38657 16.2458 8.46761 16.3901 8.61187C16.5343 8.75613 16.6154 8.95179 16.6154 9.1558ZM14.9221 14.8481C15.0447 15.0111 15.0976 15.2161 15.0691 15.418C15.0406 15.62 14.9331 15.8023 14.7702 15.925C13.9151 16.5616 12.8667 16.8841 11.8017 16.838C10.7366 16.7919 9.72001 16.3802 8.92308 15.6721V16.0789C8.92308 16.2829 8.84203 16.4785 8.69777 16.6228C8.55352 16.7671 8.35786 16.8481 8.15385 16.8481C7.94983 16.8481 7.75418 16.7671 7.60992 16.6228C7.46566 16.4785 7.38462 16.2829 7.38462 16.0789V13.7712C7.38462 13.5672 7.46566 13.3715 7.60992 13.2273C7.75418 13.083 7.94983 13.002 8.15385 13.002H10.4615C10.6656 13.002 10.8612 13.083 11.0055 13.2273C11.1497 13.3715 11.2308 13.5672 11.2308 13.7712C11.2308 13.9752 11.1497 14.1709 11.0055 14.3151C10.8612 14.4594 10.6656 14.5404 10.4615 14.5404H9.96635C10.4977 15.0059 11.1726 15.2752 11.8784 15.3034C12.5843 15.3316 13.2784 15.1169 13.8452 14.6952C14.0083 14.5727 14.2134 14.52 14.4153 14.5487C14.6173 14.5773 14.7996 14.685 14.9221 14.8481Z" fill="white"/>
</svg>
