<svg width="24" height="24" viewBox="0 0 24 24" fill="none" xmlns="http://www.w3.org/2000/svg">
<path d="M22.8752 5.09673V9.59672C22.8752 9.89509 22.7567 10.1812 22.5457 10.3922C22.3347 10.6032 22.0486 10.7217 21.7502 10.7217H17.2502C16.9518 10.7217 16.6657 10.6032 16.4547 10.3922C16.2437 10.1812 16.1252 9.89509 16.1252 9.59672C16.1252 9.29836 16.2437 9.01221 16.4547 8.80123C16.6657 8.59025 16.9518 8.47173 17.2502 8.47173H18.8533L17.0721 6.84235C17.0599 6.8311 17.0477 6.81985 17.0365 6.80766C16.2105 5.98225 15.1944 5.37247 14.0775 5.03198C12.9606 4.69149 11.7771 4.63073 10.6312 4.85504C9.48524 5.07935 8.412 5.58185 7.50589 6.31834C6.59978 7.05483 5.88856 8.00273 5.43482 9.07863C4.98107 10.1545 4.79871 11.3255 4.90377 12.4884C5.00883 13.6513 5.39809 14.7706 6.03731 15.7478C6.67653 16.725 7.54612 17.53 8.56955 18.0922C9.59298 18.6544 10.7389 18.9564 11.9065 18.9717H12.0002C13.8189 18.9761 15.5695 18.2806 16.8893 17.0292C17.1062 16.8242 17.3957 16.7138 17.6941 16.7222C17.9924 16.7307 18.2752 16.8573 18.4802 17.0742C18.6852 17.2912 18.7956 17.5807 18.7872 17.879C18.7788 18.1774 18.6522 18.4602 18.4352 18.6652C16.6979 20.3118 14.3939 21.2272 12.0002 21.2217H11.8718C10.3371 21.2001 8.83127 20.802 7.48642 20.0625C6.14156 19.3229 4.99884 18.2645 4.15861 16.9801C3.31837 15.6957 2.80631 14.2247 2.66739 12.6962C2.52847 11.1677 2.76694 9.62849 3.36186 8.21369C3.95679 6.79889 4.88996 5.55179 6.07945 4.58188C7.26894 3.61198 8.67837 2.94895 10.184 2.651C11.6896 2.35306 13.2453 2.42931 14.7145 2.87307C16.1838 3.31683 17.5216 4.11452 18.6105 5.1961L20.6252 7.03923V5.09673C20.6252 4.79836 20.7437 4.51221 20.9547 4.30123C21.1657 4.09025 21.4518 3.97173 21.7502 3.97173C22.0486 3.97173 22.3347 4.09025 22.5457 4.30123C22.7567 4.51221 22.8752 4.79836 22.8752 5.09673Z" fill="white"/>
</svg>
