<svg width="21" height="21" viewBox="0 0 21 21" fill="none" xmlns="http://www.w3.org/2000/svg">
<path d="M20.25 9.75H18.7153C18.631 8.81248 18.3855 7.89654 17.9897 7.0425L19.3191 6.27469C19.4914 6.17523 19.6171 6.0114 19.6686 5.81923C19.7201 5.62707 19.6932 5.42231 19.5938 5.25C19.4943 5.07769 19.3305 4.95195 19.1383 4.90044C18.9461 4.84892 18.7414 4.87586 18.5691 4.97531L17.2378 5.74406C16.694 4.97616 16.0238 4.30603 15.2559 3.76219L16.0247 2.43094C16.1241 2.25863 16.1511 2.05387 16.0996 1.8617C16.048 1.66954 15.9223 1.50571 15.75 1.40625C15.5777 1.30679 15.3729 1.27986 15.1808 1.33137C14.9886 1.38289 14.8248 1.50863 14.7253 1.68094L13.9575 3.01031C13.1035 2.61449 12.1875 2.36901 11.25 2.28469V0.75C11.25 0.551088 11.171 0.360322 11.0303 0.21967C10.8897 0.0790176 10.6989 0 10.5 0C10.3011 0 10.1103 0.0790176 9.96967 0.21967C9.82902 0.360322 9.75 0.551088 9.75 0.75V2.28469C8.81248 2.36901 7.89654 2.61449 7.0425 3.01031L6.27469 1.68094C6.22544 1.59562 6.15987 1.52084 6.08173 1.46086C6.00358 1.40088 5.91438 1.35688 5.81923 1.33137C5.72408 1.30587 5.62484 1.29935 5.52717 1.3122C5.4295 1.32505 5.33532 1.357 5.25 1.40625C5.07769 1.50571 4.95195 1.66954 4.90044 1.8617C4.84892 2.05387 4.87586 2.25863 4.97531 2.43094L5.74406 3.76219C4.97616 4.30603 4.30603 4.97616 3.76219 5.74406L2.43094 4.97531C2.25863 4.87586 2.05387 4.84892 1.8617 4.90044C1.66954 4.95195 1.50571 5.07769 1.40625 5.25C1.30679 5.42231 1.27986 5.62707 1.33137 5.81923C1.38289 6.0114 1.50863 6.17523 1.68094 6.27469L3.01031 7.0425C2.61449 7.89654 2.36901 8.81248 2.28469 9.75H0.75C0.551088 9.75 0.360322 9.82902 0.21967 9.96967C0.0790176 10.1103 0 10.3011 0 10.5C0 10.6989 0.0790176 10.8897 0.21967 11.0303C0.360322 11.171 0.551088 11.25 0.75 11.25H2.28469C2.36901 12.1875 2.61449 13.1035 3.01031 13.9575L1.68094 14.7253C1.53787 14.8078 1.42604 14.9353 1.3628 15.0878C1.29957 15.2404 1.28846 15.4096 1.3312 15.5691C1.37394 15.7286 1.46814 15.8696 1.59918 15.9701C1.73023 16.0706 1.89078 16.1251 2.05594 16.125C2.18762 16.1254 2.31704 16.0908 2.43094 16.0247L3.76219 15.2559C4.30603 16.0238 4.97616 16.694 5.74406 17.2378L4.97531 18.5691C4.87586 18.7414 4.84892 18.9461 4.90044 19.1383C4.95195 19.3305 5.07769 19.4943 5.25 19.5938C5.42231 19.6932 5.62707 19.7201 5.81923 19.6686C6.0114 19.6171 6.17523 19.4914 6.27469 19.3191L7.0425 17.9897C7.89654 18.3855 8.81248 18.631 9.75 18.7153V20.25C9.75 20.4489 9.82902 20.6397 9.96967 20.7803C10.1103 20.921 10.3011 21 10.5 21C10.6989 21 10.8897 20.921 11.0303 20.7803C11.171 20.6397 11.25 20.4489 11.25 20.25V18.7153C12.1875 18.631 13.1035 18.3855 13.9575 17.9897L14.7253 19.3191C14.8248 19.4914 14.9886 19.6171 15.1808 19.6686C15.3729 19.7201 15.5777 19.6932 15.75 19.5938C15.9223 19.4943 16.048 19.3305 16.0996 19.1383C16.1511 18.9461 16.1241 18.7414 16.0247 18.5691L15.2559 17.2378C16.0238 16.694 16.694 16.0238 17.2378 15.2559L18.5691 16.0247C18.6544 16.074 18.7486 16.1059 18.8462 16.1188C18.9439 16.1316 19.0432 16.1251 19.1383 16.0996C19.2335 16.0741 19.3227 16.0301 19.4008 15.9701C19.479 15.9101 19.5445 15.8353 19.5938 15.75C19.6933 15.5778 19.7204 15.3731 19.6691 15.181C19.6177 14.9888 19.4922 14.8249 19.32 14.7253L17.9906 13.9575C18.3861 13.1034 18.6313 12.1875 18.7153 11.25H20.25C20.4489 11.25 20.6397 11.171 20.7803 11.0303C20.921 10.8897 21 10.6989 21 10.5C21 10.3011 20.921 10.1103 20.7803 9.96967C20.6397 9.82902 20.4489 9.75 20.25 9.75ZM10.5 3.75C12.1597 3.75197 13.7605 4.36464 14.9975 5.4712C16.2344 6.57775 17.0208 8.10081 17.2069 9.75H10.9331L7.79625 4.31719C8.64841 3.94265 9.56917 3.7495 10.5 3.75ZM3.75 10.5C3.75057 9.44265 3.99953 8.40022 4.47682 7.45672C4.95411 6.51322 5.64637 5.69505 6.49781 5.06812L9.63375 10.5L6.49781 15.9319C5.64637 15.305 4.95411 14.4868 4.47682 13.5433C3.99953 12.5998 3.75057 11.5574 3.75 10.5ZM10.5 17.25C9.5695 17.252 8.64876 17.0604 7.79625 16.6875L10.9331 11.25H17.2069C17.0208 12.8992 16.2344 14.4222 14.9975 15.5288C13.7605 16.6354 12.1597 17.248 10.5 17.25Z" fill="#999999"/>
</svg>
