<svg width="14" height="17" viewBox="0 0 14 17" fill="none" xmlns="http://www.w3.org/2000/svg">
<path d="M13.75 7.50049V15.0005C13.75 15.332 13.6183 15.65 13.3839 15.8844C13.1495 16.1188 12.8315 16.2505 12.5 16.2505H1.25C0.918479 16.2505 0.600537 16.1188 0.366116 15.8844C0.131696 15.65 0 15.332 0 15.0005V7.50049C0 7.16897 0.131696 6.85103 0.366116 6.61661C0.600537 6.38219 0.918479 6.25049 1.25 6.25049H3.125C3.29076 6.25049 3.44973 6.31634 3.56694 6.43355C3.68415 6.55076 3.75 6.70973 3.75 6.87549C3.75 7.04125 3.68415 7.20022 3.56694 7.31743C3.44973 7.43464 3.29076 7.50049 3.125 7.50049H1.25V15.0005H12.5V7.50049H10.625C10.4592 7.50049 10.3003 7.43464 10.1831 7.31743C10.0658 7.20022 10 7.04125 10 6.87549C10 6.70973 10.0658 6.55076 10.1831 6.43355C10.3003 6.31634 10.4592 6.25049 10.625 6.25049H12.5C12.8315 6.25049 13.1495 6.38219 13.3839 6.61661C13.6183 6.85103 13.75 7.16897 13.75 7.50049ZM4.19219 4.19268L6.25 2.13409V9.37549C6.25 9.54125 6.31585 9.70022 6.43306 9.81744C6.55027 9.93464 6.70924 10.0005 6.875 10.0005C7.04076 10.0005 7.19973 9.93464 7.31694 9.81744C7.43415 9.70022 7.5 9.54125 7.5 9.37549V2.13409L9.55781 4.19268C9.67509 4.30996 9.83415 4.37584 10 4.37584C10.1659 4.37584 10.3249 4.30996 10.4422 4.19268C10.5595 4.0754 10.6253 3.91634 10.6253 3.75049C10.6253 3.58464 10.5595 3.42558 10.4422 3.3083L7.31719 0.183304C7.25914 0.125194 7.19021 0.0790945 7.11434 0.0476418C7.03846 0.0161891 6.95713 0 6.875 0C6.79287 0 6.71154 0.0161891 6.63566 0.0476418C6.55979 0.0790945 6.49086 0.125194 6.43281 0.183304L3.30781 3.3083C3.19054 3.42558 3.12465 3.58464 3.12465 3.75049C3.12465 3.91634 3.19054 4.0754 3.30781 4.19268C3.42509 4.30995 3.58415 4.37584 3.75 4.37584C3.91585 4.37584 4.07491 4.30996 4.19219 4.19268Z" fill="#657DF2"/>
</svg>
