<svg width="32" height="27" viewBox="0 0 32 27" fill="none" xmlns="http://www.w3.org/2000/svg">
<path d="M8.66154 12.3126C8.45801 11.1315 8.49464 9.92173 8.76923 8.75506C9.12615 7.21023 9.82923 6.13636 10.4769 6.13636C10.8723 6.13636 10.9292 6.23915 10.9569 6.28977C11.0923 6.53676 11.5723 7.96653 9.01385 13.4264C8.84762 13.0722 8.72916 12.6977 8.66154 12.3126ZM32 2.45455V24.5455C32 25.1964 31.7407 25.8208 31.279 26.2811C30.8174 26.7414 30.1913 27 29.5385 27H2.46154C1.8087 27 1.1826 26.7414 0.720968 26.2811C0.25934 25.8208 0 25.1964 0 24.5455V2.45455C0 1.80356 0.25934 1.17924 0.720968 0.71892C1.1826 0.258603 1.8087 0 2.46154 0H29.5385C30.1913 0 30.8174 0.258603 31.279 0.71892C31.7407 1.17924 32 1.80356 32 2.45455ZM9.23077 18.4091C9.53846 17.8584 9.83692 17.2861 10.1385 16.7001C11.7292 16.651 13.5554 15.5388 15.5954 13.3742C16.3646 14.8607 17.3462 15.7137 18.4985 15.9131C19.7292 16.1248 20.96 15.548 22.1815 14.1949C23.1046 15.0433 24.6662 15.9545 27.0738 15.9545C27.4003 15.9545 27.7133 15.8252 27.9441 15.5951C28.1749 15.3649 28.3046 15.0528 28.3046 14.7273C28.3046 14.4018 28.1749 14.0896 27.9441 13.8595C27.7133 13.6293 27.4003 13.5 27.0738 13.5C24.3185 13.5 23.3354 11.8309 23.2523 11.6806C23.1617 11.4862 23.0207 11.3196 22.8438 11.1979C22.6668 11.0763 22.4605 11.004 22.2462 10.9887C22.0278 10.9735 21.8093 11.0167 21.6132 11.1138C21.4172 11.2109 21.2506 11.3583 21.1308 11.541C20.0877 13.0751 19.3046 13.5598 18.9169 13.4939C18.3015 13.388 17.5092 11.9598 17.1892 10.7325C17.1323 10.5116 17.0147 10.3108 16.8497 10.1528C16.6847 9.9948 16.4788 9.88578 16.2551 9.83798C16.0314 9.79018 15.7988 9.8055 15.5833 9.88221C15.3679 9.95893 15.1781 10.094 15.0354 10.2723C13.6692 11.9506 12.5277 13.0014 11.6308 13.5951C14.0615 8.12608 13.6723 6.14097 13.1077 5.11159C12.8231 4.57773 12.0908 3.68182 10.4769 3.68182C8.56308 3.68182 7.02769 5.36932 6.37077 8.20125C6.02165 9.70173 5.97822 11.2568 6.24308 12.7744C6.50462 14.1397 7.03846 15.1875 7.80615 15.861C7.34462 16.7523 6.86923 17.6144 6.42154 18.4091H4.92308C4.59666 18.4091 4.28361 18.5384 4.05279 18.7686C3.82198 18.9987 3.69231 19.3109 3.69231 19.6364C3.69231 19.9619 3.82198 20.274 4.05279 20.5042C4.28361 20.7343 4.59666 20.8636 4.92308 20.8636H4.99077C4.33538 21.9559 3.89692 22.6416 3.88615 22.657C3.71029 22.9312 3.65089 23.2639 3.721 23.5818C3.79111 23.8997 3.98499 24.1768 4.26 24.3522C4.53501 24.5275 4.86861 24.5868 5.18743 24.5168C5.50624 24.4469 5.78414 24.2536 5.96 23.9794C6.01539 23.895 6.80154 22.6647 7.85077 20.8636H27.0769C27.4033 20.8636 27.7164 20.7343 27.9472 20.5042C28.178 20.274 28.3077 19.9619 28.3077 19.6364C28.3077 19.3109 28.178 18.9987 27.9472 18.7686C27.7164 18.5384 27.4033 18.4091 27.0769 18.4091H9.23077Z" fill="#6A737B"/>
</svg>
