<svg width="24" height="24" viewBox="0 0 24 24" fill="none" xmlns="http://www.w3.org/2000/svg">
<path d="M21.7502 15.75H5.98709C6.23646 15.2587 6.48677 14.7534 6.73708 14.2397C8.14333 14.3944 9.79146 13.4166 11.674 11.3203C12.1427 12.5822 13.0286 14.22 14.5408 14.25C15.3902 14.2669 16.2386 13.7625 17.1115 12.7153C17.748 13.4766 19.0596 14.25 21.7502 14.25C21.9491 14.25 22.1399 14.171 22.2805 14.0303C22.4212 13.8897 22.5002 13.6989 22.5002 13.5C22.5002 13.3011 22.4212 13.1103 22.2805 12.9697C22.1399 12.829 21.9491 12.75 21.7502 12.75C18.8974 12.75 18.0536 11.7703 18.0002 11.2397C18.0087 11.0787 17.9628 10.9196 17.87 10.7879C17.7771 10.6561 17.6427 10.5593 17.4883 10.5131C17.3279 10.4649 17.1561 10.4709 16.9994 10.53C16.8427 10.5891 16.7097 10.6982 16.6211 10.8403C15.4896 12.5784 14.8043 12.7556 14.5661 12.75C13.7918 12.735 13.0043 10.92 12.7343 9.61688C12.7055 9.47731 12.6375 9.34883 12.5383 9.2465C12.4391 9.14417 12.3128 9.07222 12.1742 9.03907C12.0356 9.00592 11.8904 9.01294 11.7557 9.05932C11.6209 9.1057 11.5022 9.18951 11.4133 9.30094C9.51958 11.6766 8.25021 12.4762 7.4599 12.6834C8.25583 10.9144 8.85021 9.36094 9.23083 8.05313C9.87021 5.85563 9.91709 4.31906 9.3724 3.35625C9.09115 2.85187 8.49677 2.25 7.30427 2.25C5.79865 2.25 4.61084 3.67313 4.04459 6.15469C3.70802 7.6275 3.65271 9.26813 3.89271 10.6547C4.13271 12.0413 4.63052 13.05 5.35427 13.6491C5.00459 14.3728 4.64834 15.0797 4.30146 15.75H2.25021C2.0513 15.75 1.86053 15.829 1.71988 15.9697C1.57923 16.1103 1.50021 16.3011 1.50021 16.5C1.50021 16.6989 1.57923 16.8897 1.71988 17.0303C1.86053 17.171 2.0513 17.25 2.25021 17.25H3.5074C2.44615 19.2188 1.62115 20.5913 1.60802 20.6138C1.55455 20.6982 1.5185 20.7925 1.502 20.8911C1.48549 20.9897 1.48886 21.0906 1.5119 21.1878C1.53494 21.2851 1.57719 21.3768 1.63617 21.4575C1.69515 21.5382 1.76967 21.6063 1.85534 21.6578C1.94102 21.7093 2.03612 21.7431 2.13507 21.7573C2.23401 21.7715 2.3348 21.7658 2.4315 21.7405C2.52821 21.7152 2.61888 21.6709 2.69819 21.61C2.7775 21.5492 2.84385 21.4731 2.89334 21.3862C2.9074 21.3619 3.9499 19.6247 5.20896 17.25H21.7502C21.9491 17.25 22.1399 17.171 22.2805 17.0303C22.4212 16.8897 22.5002 16.6989 22.5002 16.5C22.5002 16.3011 22.4212 16.1103 22.2805 15.9697C22.1399 15.829 21.9491 15.75 21.7502 15.75ZM5.50709 6.48844C5.88021 4.85063 6.60302 3.75 7.30427 3.75C7.80396 3.75 7.9699 3.92437 8.06646 4.09406C8.34771 4.59375 8.67771 6.36187 6.03583 12.1931C5.26146 11.1356 4.99802 8.71875 5.50709 6.48844Z" fill="white"/>
</svg>
