<svg width="70" height="70" viewBox="0 0 70 70" fill="none" xmlns="http://www.w3.org/2000/svg">
<g clip-path="url(#clip0_198_5337)">
<path d="M36.083 18C37.2803 18 37.7176 18.1242 38.1562 18.3604C38.5889 18.5906 38.9436 18.9443 39.1738 19.377C39.408 19.8156 39.5332 20.2502 39.5332 21.4512V36.082C39.5332 37.2797 39.4079 37.7176 39.1738 38.1562C38.9436 38.5891 38.589 38.9435 38.1562 39.1738C37.7177 39.4079 37.2815 39.5332 36.083 39.5332H21.4502C20.2532 39.5332 19.8154 39.4078 19.377 39.1738C18.9445 38.9435 18.5904 38.5888 18.3604 38.1562C18.1262 37.7176 18 37.281 18 36.082V21.4482C18 20.2507 18.1269 19.8136 18.3604 19.375C18.5922 18.9437 18.9457 18.5902 19.377 18.3584C19.8155 18.1243 20.2515 18.001 21.4502 18.001V18H36.083ZM22.5332 21.6836C22.0639 21.6837 21.6837 22.0639 21.6836 22.5332V25.7715C21.6836 26.2409 22.0638 26.621 22.5332 26.6211C23.0026 26.6211 23.3838 26.2409 23.3838 25.7715V24.585L27.5986 28.8008C27.9306 29.1327 28.4688 29.1327 28.8008 28.8008C29.1327 28.4688 29.1327 27.9306 28.8008 27.5986L24.585 23.3838H25.7715C26.2409 23.3838 26.6211 23.0026 26.6211 22.5332C26.621 22.0638 26.2409 21.6836 25.7715 21.6836H22.5332Z" fill="#65A304"/>
<path d="M48.5488 30.4668C49.7498 30.4668 50.1844 30.5937 50.623 30.8271C51.0569 31.0559 51.4119 31.4099 51.6406 31.8438C51.8775 32.2824 52 32.719 52 33.918V48.5488C52 49.7498 51.8768 50.1844 51.6406 50.623C51.4119 51.057 51.057 51.4119 50.623 51.6406C50.1844 51.8775 49.7498 52 48.5488 52L48.5498 51.999H33.918C32.7203 51.999 32.2824 51.8758 31.8438 51.6396C31.4099 51.4109 31.0559 51.0559 30.8271 50.6221C30.593 50.1834 30.4668 49.7496 30.4668 48.5488V33.918C30.4668 32.7203 30.591 32.2824 30.8271 31.8438C31.0558 31.4101 31.4101 31.0558 31.8438 30.8271C32.2824 30.593 32.719 30.4668 33.918 30.4668H48.5488ZM40.1348 38.9326C39.8028 38.6007 39.2646 38.6007 38.9326 38.9326C38.6007 39.2646 38.6007 39.8028 38.9326 40.1348L45.415 46.6172H42.9336C42.4642 46.6172 42.083 46.9974 42.083 47.4668C42.083 47.9362 42.4642 48.3164 42.9336 48.3164H47.4668C47.9362 48.3164 48.3164 47.9362 48.3164 47.4668V42.9336C48.3164 42.4642 47.9362 42.083 47.4668 42.083C46.9974 42.083 46.6172 42.4642 46.6172 42.9336V45.415L40.1348 38.9326Z" fill="#83C122"/>
</g>
<defs>
<clipPath id="clip0_198_5337">
<rect width="34" height="34" fill="white" transform="translate(18 18)"/>
</clipPath>
</defs>
</svg>
