<svg width="293" height="344" viewBox="0 0 293 344" fill="none" xmlns="http://www.w3.org/2000/svg">
<g clip-path="url(#clip0_167_4245)">
<path d="M151.789 31.0448L118.389 188.161C118.056 189.729 117.166 191.037 115.973 191.918C114.573 192.953 112.755 193.404 110.917 193.013L6.16247 170.749C4.32541 170.359 2.84733 169.207 1.98986 167.693C1.2579 166.402 0.977024 164.845 1.3102 163.278L34.7097 6.16143C35.4334 2.75724 38.7771 0.58607 42.1816 1.30965L146.937 23.5737C150.341 24.2973 152.513 27.6406 151.789 31.0448Z" fill="#169EE8"/>
<path d="M100.524 109.92C108.556 111.627 116.451 106.5 118.158 98.4696C119.865 90.4388 114.738 82.5448 106.707 80.8379C98.6749 79.1309 90.7801 84.2573 89.073 92.288C87.3658 100.319 92.4928 108.213 100.524 109.92Z" fill="#FDDA40"/>
<path d="M85.2483 187.557L6.16208 170.749C4.32502 170.358 2.84694 169.207 1.98947 167.692L54.7653 121.394L74.1884 163.577L74.1915 163.582L85.2483 187.557Z" fill="#CECECE"/>
<path d="M115.971 191.918C114.572 192.953 112.753 193.403 110.916 193.013L54.3332 180.987L74.1907 163.582L74.1954 163.579L94.616 145.645L115.971 191.918Z" fill="#EBEBEB"/>
</g>
<path d="M139.286 303.67C140.378 303.501 141.126 302.479 140.957 301.387C140.787 300.296 139.766 299.548 138.674 299.717L138.98 301.693L139.286 303.67ZM57.4917 206.516C56.8936 205.587 55.6559 205.319 54.7273 205.917L39.5951 215.665C38.6665 216.263 38.3987 217.501 38.9968 218.429C39.595 219.358 40.8327 219.626 41.7612 219.028L55.2121 210.363L63.8767 223.814C64.4748 224.743 65.7125 225.01 66.6411 224.412C67.5697 223.814 67.8375 222.576 67.2394 221.648L57.4917 206.516ZM138.98 301.693L138.674 299.717C117.99 302.921 92.5662 303.873 74.9742 292.31C57.718 280.968 47.1798 256.932 57.7651 208.022L55.8104 207.599L53.8556 207.176C43.1275 256.746 53.4715 282.964 72.7772 295.653C91.7472 308.121 118.565 306.88 139.286 303.67L138.98 301.693Z" fill="black"/>
<path d="M172.613 41.4559C171.523 41.6332 170.783 42.6608 170.96 43.7511C171.138 44.8413 172.165 45.5813 173.256 45.4039L172.935 43.4299L172.613 41.4559ZM247.585 140.909C248.129 141.87 249.349 142.209 250.311 141.665L265.98 132.806C266.941 132.263 267.28 131.043 266.737 130.081C266.193 129.12 264.973 128.781 264.011 129.324L250.083 137.199L242.209 123.271C241.665 122.309 240.445 121.971 239.483 122.514C238.522 123.058 238.183 124.278 238.727 125.24L247.585 140.909ZM172.935 43.4299L173.256 45.4039C193.671 42.0827 218.47 43.2173 234.957 56.1134C251.193 68.8137 260.118 93.585 247.399 139.389L249.326 139.924L251.253 140.459C264.174 93.9265 255.495 67.1005 237.421 52.9628C219.598 39.021 193.382 38.0771 172.613 41.4559L172.935 43.4299Z" fill="black"/>
<g clip-path="url(#clip1_167_4245)">
<path d="M279.567 203.689L292.342 325.226C292.706 328.687 290.197 331.785 286.735 332.149L180.227 343.342C176.765 343.706 173.667 341.197 173.303 337.736L156.511 177.989C156.147 174.528 158.656 171.43 162.118 171.066L230.412 163.889L279.567 203.689Z" fill="white"/>
<path d="M279.566 203.689L241.352 207.705C237.891 208.069 234.792 205.56 234.429 202.099L230.412 163.889L279.566 203.689Z" fill="#BABABA"/>
<path d="M230.274 275.337C224.58 275.326 218.962 276.419 213.298 276.852C212.368 276.926 212.516 277.473 212.578 278.06C213.823 289.904 215.06 301.745 216.293 313.586C216.386 314.471 216.642 314.725 217.545 314.61C220.095 314.283 222.664 314.052 225.229 313.783L225.223 313.728C227.733 313.464 230.273 313.332 232.759 312.912C238.974 311.855 243.721 308.768 245.978 302.632C247.529 297.992 247.657 292.995 246.35 288.279C244.479 280.237 238.497 275.344 230.281 275.329M238.705 298.559C238.118 302.765 234.731 306.027 230.505 306.459C228.629 306.736 226.728 306.836 224.856 307.108C223.951 307.239 223.689 306.962 223.607 306.076C223.264 302.355 222.845 298.631 222.454 294.911C222.068 291.238 221.705 287.559 221.276 283.895C221.178 283.043 221.318 282.672 222.258 282.62C224.006 282.52 225.739 282.247 227.483 282.123C232.282 281.488 236.803 284.532 238.016 289.218C239.017 292.228 239.256 295.445 238.702 298.567" fill="#E10001"/>
<path d="M195.054 278.798C190.164 279.28 185.284 279.856 180.393 280.299C179.256 280.402 179.078 280.781 179.196 281.826C179.858 287.674 180.45 293.53 181.066 299.388C181.677 305.206 182.309 311.026 182.881 316.848L182.963 317.624C182.999 317.972 183.311 318.224 183.659 318.188L190.414 317.478C190.453 317.474 190.477 317.436 190.515 317.424C190.677 317.379 190.815 317.262 190.886 317.108C191 316.842 191.033 316.55 190.971 316.263C190.586 313.125 190.345 309.968 189.926 306.845C189.775 305.713 190.127 305.446 191.179 305.363C193.555 305.177 195.928 304.928 198.286 304.577C205.848 303.442 210.228 297.542 209.267 289.876C208.355 282.589 202.562 278.06 195.067 278.804M196.591 298.283C194.404 298.714 192.191 299.014 189.963 299.181C189.182 299.283 189.093 298.849 189.031 298.254C188.853 296.372 188.635 294.491 188.438 292.612C188.24 290.732 188.042 288.849 187.844 286.966C187.796 286.504 187.605 285.97 188.399 285.918C190.749 285.564 193.123 285.398 195.5 285.417C198.85 285.722 200.916 287.936 201.194 291.489C201.685 294.616 199.67 297.587 196.58 298.284" fill="#E10001"/>
<path d="M274.165 270.452L273.5 270.522C266.107 271.342 258.704 272.132 251.3 272.847C250.129 272.962 250.022 273.377 250.136 274.386C250.794 280.235 251.386 286.087 252.001 291.941C252.612 297.755 253.239 303.568 253.815 309.386L253.816 309.393L253.897 310.165C253.933 310.513 254.245 310.765 254.593 310.729L261.348 310.019C261.697 309.982 261.949 309.671 261.912 309.322C261.912 309.322 261.912 309.322 261.912 309.318L261.874 308.954C261.868 308.899 261.876 308.863 261.87 308.804C261.39 304.694 261.017 300.581 260.527 296.48C260.4 295.42 260.626 295.048 261.743 294.947C265.999 294.567 270.256 294.052 274.518 293.652L274.572 293.646L275.148 293.585C275.496 293.549 275.749 293.237 275.712 292.889L275.171 287.744C275.135 287.395 274.823 287.143 274.475 287.18L274.067 287.223C273.989 287.231 273.932 287.217 273.839 287.231C269.54 287.726 265.231 288.124 260.929 288.631C259.955 288.741 259.669 288.474 259.594 287.532C259.394 285.063 259.154 282.591 258.809 280.137C258.656 279.025 258.982 278.733 260.056 278.632C264.8 278.193 269.536 277.636 274.279 277.185C274.33 277.18 274.361 277.169 274.412 277.163L274.878 277.114C275.226 277.078 275.478 276.766 275.442 276.418L274.874 271.018C274.838 270.67 274.526 270.418 274.177 270.454" fill="#E10001"/>
<path d="M178.341 236.063L251.957 228.326C254.118 228.099 256.057 229.669 256.284 231.83C256.511 233.992 254.941 235.93 252.78 236.157L179.164 243.894C177.002 244.121 175.064 242.551 174.836 240.39C174.609 238.229 176.179 236.29 178.341 236.063Z" fill="#DBDFDF"/>
<path d="M180.645 257.989L226.46 253.174C228.621 252.947 230.56 254.517 230.787 256.678C231.014 258.839 229.444 260.778 227.283 261.005L181.468 265.82C179.307 266.047 177.368 264.477 177.141 262.316C176.914 260.154 178.484 258.216 180.645 257.989Z" fill="#DBDFDF"/>
</g>
<defs>
<clipPath id="clip0_167_4245">
<rect width="119.694" height="173.225" fill="white" transform="matrix(0.978152 0.207891 -0.207932 0.978143 36.0195 0)"/>
</clipPath>
<clipPath id="clip1_167_4245">
<rect width="119.695" height="173.225" fill="white" transform="matrix(0.994523 -0.104518 0.104539 0.994521 155.853 171.725)"/>
</clipPath>
</defs>
</svg>
