<svg width="34" height="34" viewBox="0 0 34 34" fill="none" xmlns="http://www.w3.org/2000/svg">
<path d="M24.3024 8.03636C23.553 8.03636 22.8906 7.57204 22.4643 6.93722C21.155 4.98785 18.9386 3.70909 16.4705 3.70909C12.4927 3.70909 9.26814 7.03032 9.26814 11.1273V13.6H5.66699V11.1273C5.66699 4.98185 10.5039 0 16.4705 0C20.4931 0 24.0022 2.26441 25.8618 5.62316C26.4939 6.76495 25.5785 8.03636 24.3024 8.03636Z" fill="#184879"/>
<path d="M29.7334 13.5996C30.8379 13.5997 31.7334 14.4951 31.7334 15.5996V32C31.7332 33.1043 30.8378 33.9999 29.7334 34H4.2666C3.16216 34 2.26681 33.1044 2.2666 32V15.5996C2.2666 14.495 3.16203 13.5996 4.2666 13.5996H29.7334ZM7.7666 19.2666C7.46179 19.2666 7.22301 19.3682 7.0498 19.5713C6.88352 19.7745 6.7998 20.0663 6.7998 20.4473V27.1523C6.79986 27.5247 6.88357 27.8167 7.0498 28.0283C7.21604 28.2312 7.45126 28.333 7.75586 28.333C8.07457 28.333 8.31428 28.2315 8.47363 28.0283C8.63287 27.8168 8.71186 27.5246 8.71191 27.1523V25.1328H10.3232C11.1546 25.1328 11.7958 24.8748 12.2461 24.3584C12.7033 23.8335 12.9316 23.1134 12.9316 22.1992C12.9316 21.2853 12.7032 20.57 12.2461 20.0537C11.7958 19.5289 11.1546 19.2666 10.3232 19.2666H7.7666ZM22.9912 19.2666C22.6656 19.2666 22.4154 19.3723 22.2422 19.584C22.0761 19.7871 21.9932 20.0835 21.9932 20.4727V27.127C21.9932 27.5161 22.076 27.8168 22.2422 28.0283C22.4154 28.2315 22.6551 28.333 22.96 28.333C23.5902 28.3329 23.9052 27.9308 23.9053 27.127V24.6631H26.2227C26.465 24.6631 26.6487 24.5868 26.7734 24.4346C26.905 24.2822 26.9716 24.0579 26.9717 23.7617C26.9717 23.4739 26.9051 23.2539 26.7734 23.1016C26.6487 22.9492 26.4652 22.873 26.2227 22.873H23.9053V21.0693H26.4512C26.7006 21.0693 26.888 20.9932 27.0127 20.8408C27.1374 20.68 27.2002 20.4515 27.2002 20.1553C27.2002 19.8675 27.1374 19.6475 27.0127 19.4951C26.888 19.3427 26.7006 19.2666 26.4512 19.2666H22.9912ZM14.8213 19.2666C14.4957 19.2666 14.2455 19.3723 14.0723 19.584C13.9061 19.7872 13.8232 20.0834 13.8232 20.4727V27.0127C13.8233 27.4019 13.9061 27.7025 14.0723 27.9141C14.2455 28.1172 14.4957 28.2188 14.8213 28.2188H16.8574C17.4948 28.2188 18.0599 28.1214 18.5518 27.9268C19.0506 27.7236 19.4701 27.4317 19.8096 27.0508C20.1491 26.6614 20.4087 26.1909 20.5889 25.6406C20.7689 25.082 20.8594 24.4472 20.8594 23.7363C20.8594 22.3142 20.5093 21.2134 19.8096 20.4346C19.1167 19.6557 18.1323 19.2666 16.8574 19.2666H14.8213ZM16.7334 21.1582C17.4536 21.1583 17.9904 21.3699 18.3438 21.793C18.6971 22.2078 18.874 22.8559 18.874 23.7363C18.874 24.1764 18.8293 24.5573 18.7393 24.8789C18.6561 25.2006 18.5239 25.4671 18.3438 25.6787C18.1705 25.8903 17.9489 26.0511 17.6787 26.1611C17.4155 26.2712 17.1005 26.3261 16.7334 26.3262H15.7354V21.1582H16.7334ZM9.99023 21.0566C10.3505 21.0566 10.6283 21.1497 10.8223 21.3359C11.0161 21.5221 11.1132 21.8101 11.1133 22.1992C11.1133 22.5802 11.0163 22.8688 10.8223 23.0635C10.6283 23.2497 10.3505 23.3428 9.99023 23.3428H8.71191V21.0566H9.99023Z" fill="#4A7AAB"/>
</svg>
