<svg width="15" height="12" viewBox="0 0 15 12" fill="none" xmlns="http://www.w3.org/2000/svg">
<path d="M15.0005 3.5014C15.0007 3.22731 14.9366 2.957 14.8132 2.71224C14.6898 2.46748 14.5107 2.25512 14.2902 2.09226C14.0698 1.92941 13.8141 1.82062 13.5439 1.77465C13.2737 1.72869 12.9965 1.74684 12.7346 1.82763C12.4727 1.90843 12.2334 2.04962 12.0361 2.23982C11.8387 2.43002 11.6888 2.66392 11.5984 2.92267C11.508 3.18143 11.4796 3.45779 11.5156 3.72951C11.5516 4.00123 11.6508 4.26071 11.8055 4.48702L10.1311 6.54953L8.62546 3.0889C8.90006 2.85779 9.09695 2.54783 9.18946 2.20104C9.28196 1.85426 9.2656 1.48741 9.1426 1.15024C9.01959 0.813064 8.79589 0.521864 8.50181 0.31611C8.20773 0.110356 7.85749 0 7.49858 0C7.13967 0 6.78944 0.110356 6.49536 0.31611C6.20128 0.521864 5.97757 0.813064 5.85457 1.15024C5.73156 1.48741 5.7152 1.85426 5.80771 2.20104C5.90021 2.54783 6.09711 2.85779 6.37171 3.0889L4.86983 6.54765L3.19546 4.48515C3.41055 4.16999 3.51674 3.79317 3.49786 3.41208C3.47898 3.03099 3.33607 2.66651 3.09089 2.37415C2.8457 2.08179 2.51169 1.87757 2.13971 1.79261C1.76773 1.70764 1.37817 1.74657 1.03037 1.90347C0.682563 2.06038 0.395568 2.32666 0.213094 2.66175C0.0306198 2.99685 -0.0373345 3.38241 0.0195805 3.7597C0.0764955 4.13699 0.255161 4.48534 0.528366 4.7517C0.801571 5.01806 1.15434 5.18783 1.53296 5.23515L2.43796 10.6658C2.47686 10.8993 2.59733 11.1114 2.77791 11.2644C2.9585 11.4174 3.18751 11.5014 3.42421 11.5014H11.5767C11.8134 11.5014 12.0424 11.4174 12.223 11.2644C12.4036 11.1114 12.5241 10.8993 12.563 10.6658L13.4673 5.23765C13.8906 5.18479 14.2799 4.97918 14.5622 4.65946C14.8446 4.33974 15.0004 3.92792 15.0005 3.5014ZM7.50046 1.0014C7.64879 1.0014 7.7938 1.04539 7.91713 1.1278C8.04047 1.21021 8.1366 1.32734 8.19337 1.46439C8.25013 1.60143 8.26499 1.75223 8.23605 1.89772C8.20711 2.0432 8.13568 2.17684 8.03079 2.28173C7.9259 2.38662 7.79226 2.45805 7.64677 2.48699C7.50129 2.51593 7.35049 2.50108 7.21344 2.44431C7.0764 2.38754 6.95927 2.29141 6.87685 2.16808C6.79444 2.04474 6.75046 1.89974 6.75046 1.7514C6.75046 1.55249 6.82947 1.36172 6.97013 1.22107C7.11078 1.08042 7.30154 1.0014 7.50046 1.0014ZM1.00046 3.5014C1.00046 3.35306 1.04444 3.20806 1.12686 3.08472C1.20927 2.96139 1.3264 2.86526 1.46344 2.80849C1.60049 2.75172 1.75129 2.73687 1.89678 2.76581C2.04226 2.79475 2.1759 2.86618 2.28079 2.97107C2.38568 3.07596 2.45711 3.2096 2.48605 3.35508C2.51499 3.50057 2.50013 3.65137 2.44337 3.78841C2.3866 3.92546 2.29047 4.04259 2.16714 4.125C2.0438 4.20741 1.89879 4.2514 1.75046 4.2514C1.55155 4.2514 1.36078 4.17238 1.22013 4.03173C1.07948 3.89108 1.00046 3.70031 1.00046 3.5014ZM13.2505 4.2514C13.1021 4.2514 12.9571 4.20741 12.8338 4.125C12.7104 4.04259 12.6143 3.92546 12.5575 3.78841C12.5008 3.65137 12.4859 3.50057 12.5149 3.35508C12.5438 3.2096 12.6152 3.07596 12.7201 2.97107C12.825 2.86618 12.9587 2.79475 13.1041 2.76581C13.2496 2.73687 13.4004 2.75172 13.5375 2.80849C13.6745 2.86526 13.7916 2.96139 13.8741 3.08472C13.9565 3.20806 14.0005 3.35306 14.0005 3.5014C14.0005 3.70031 13.9214 3.89108 13.7808 4.03173C13.6401 4.17238 13.4494 4.2514 13.2505 4.2514Z" fill="white"/>
</svg>
