<svg width="32" height="30" viewBox="0 0 32 30" fill="none" xmlns="http://www.w3.org/2000/svg">
<path d="M32 1.95605C32 0.781979 30.9949 -0.13366 29.8304 0.0160452C26.4374 0.452252 19.9852 1.51076 17.2926 3.49746C17.0348 3.68764 16.8887 4.02581 16.8887 4.37938V28.7457C16.8887 29.5192 17.5904 30.008 18.182 29.6491C20.9981 27.9406 27.1058 27.049 30.1697 26.6944C31.2045 26.5746 32 25.7048 32 24.663V1.95605ZM14.7075 3.49746C12.0153 1.51073 5.56279 0.452355 2.16966 0.0162358C1.0052 -0.133433 0.00010922 0.782199 0.00010922 1.95624V24.6637C0.00010922 25.7055 0.795521 26.5753 1.83036 26.6951C4.8951 27.0499 11.0057 27.9422 13.822 29.6518C14.412 30.01 15.1114 29.5218 15.1114 28.7504V4.36733C15.1114 4.01309 14.9659 3.68831 14.7075 3.49746Z" fill="#0CB9C1"/>
</svg>
