<svg width="24" height="24" viewBox="0 0 24 24" fill="none" xmlns="http://www.w3.org/2000/svg">
<path d="M16.3125 4.47635C15.1545 3.13895 13.8511 1.93465 12.4266 0.885727C12.3005 0.797387 12.1502 0.75 11.9963 0.75C11.8423 0.75 11.692 0.797387 11.5659 0.885727C10.144 1.93509 8.84317 3.13937 7.6875 4.47635C5.11031 7.43604 3.75 10.556 3.75 13.4998C3.75 15.6878 4.61919 17.7862 6.16637 19.3334C7.71354 20.8806 9.81196 21.7498 12 21.7498C14.188 21.7498 16.2865 20.8806 17.8336 19.3334C19.3808 17.7862 20.25 15.6878 20.25 13.4998C20.25 10.556 18.8897 7.43604 16.3125 4.47635ZM18.75 13.4998C18.7498 13.7504 18.7354 14.0008 18.7069 14.2498H12.75V12.7498H18.7162C18.7387 12.9998 18.75 13.2498 18.75 13.4998ZM17.1928 8.24979H12.75V6.74979H16.2084C16.5635 7.23155 16.8922 7.73229 17.1928 8.24979ZM12.75 18.7498H16.2366C15.2377 19.5589 14.0276 20.0646 12.75 20.2067V18.7498ZM12.75 17.2498V15.7498H18.3628C18.1761 16.279 17.9242 16.7829 17.6128 17.2498H12.75ZM12.75 11.2498V9.74979H17.9428C18.1491 10.2368 18.3199 10.7381 18.4537 11.2498H12.75ZM14.9897 5.24979H12.75V3.05604C13.5434 3.73793 14.2915 4.47073 14.9897 5.24979ZM5.25 13.4998C5.25 8.81229 9.21187 4.80823 11.25 3.05604V20.2067C9.60081 20.0206 8.07775 19.2342 6.9712 17.9972C5.86464 16.7603 5.25197 15.1594 5.25 13.4998Z" fill="white"/>
</svg>
