<svg width="36" height="36" viewBox="0 0 36 36" fill="none" xmlns="http://www.w3.org/2000/svg">
<path d="M25.5 9C29.0184 9 30.0275 9 31.2394 9.92991C31.5514 10.1693 31.8307 10.4486 32.0701 10.7606C33 11.9725 33 13.7316 33 17.25V24C33 28.2426 33 30.364 31.682 31.682C30.364 33 28.2426 33 24 33H12C7.75736 33 5.63604 33 4.31802 31.682C3 30.364 3 28.2426 3 24V17.25C3 13.7316 3 11.9725 3.92991 10.7606C4.16931 10.4486 4.44858 10.1693 4.76057 9.92991C5.97246 9 6.98164 9 10.5 9" stroke="white" stroke-width="2" stroke-linecap="round"/>
<path d="M25.5 10.5L24.1713 7.17815C23.598 5.74494 23.0991 4.11915 21.625 3.38933C20.8386 3 19.8924 3 18 3C16.1076 3 15.1614 3 14.375 3.38933C12.9009 4.11915 12.402 5.74494 11.8287 7.17815L10.5 10.5" stroke="white" stroke-width="2" stroke-linecap="round" stroke-linejoin="round"/>
<path d="M18.0137 8.25L18.0898 8.25391C18.468 8.2923 18.7637 8.61167 18.7637 9C18.7637 9.38833 18.468 9.7077 18.0898 9.74609L18.0137 9.75H18C17.5858 9.75 17.25 9.41421 17.25 9C17.25 8.58579 17.5858 8.25 18 8.25H18.0137Z" stroke="white" stroke-width="1.5" stroke-linecap="round" stroke-linejoin="round"/>
<path d="M12.75 21.75H23.25M18 27L18 16.5" stroke="white" stroke-width="2" stroke-linecap="round"/>
</svg>
