<svg width="20" height="20" viewBox="0 0 20 20" fill="none" xmlns="http://www.w3.org/2000/svg">
<path d="M2.93183 8.58748C2.60844 7.69248 2.44675 7.24498 2.5157 6.95822C2.59111 6.64457 2.81416 6.40005 3.09927 6.31848C3.35994 6.2439 3.76544 6.42413 4.57644 6.78458C5.29378 7.1034 5.65245 7.26281 5.98943 7.25394C6.36047 7.24417 6.7174 7.09538 7.00133 6.83211C7.25921 6.59299 7.43218 6.21195 7.77811 5.44988L8.5405 3.77039C9.17733 2.36747 9.49575 1.66602 10 1.66602C10.5042 1.66602 10.8227 2.36747 11.4595 3.77039L12.2219 5.44988C12.5678 6.21195 12.7408 6.59299 12.9987 6.83211C13.2826 7.09538 13.6395 7.24417 14.0106 7.25394C14.3476 7.26281 14.7062 7.1034 15.4236 6.78458C16.2346 6.42413 16.6401 6.2439 16.9007 6.31848C17.1858 6.40005 17.4089 6.64457 17.4843 6.95822C17.5533 7.24498 17.3916 7.69248 17.0682 8.58747L15.6781 12.4345C15.0835 14.0802 14.7862 14.903 14.164 15.3678C13.5419 15.8327 12.7378 15.8327 11.1298 15.8327H8.8702C7.26216 15.8327 6.45814 15.8327 5.83596 15.3678C5.21378 14.903 4.91647 14.0802 4.32185 12.4345L2.93183 8.58748Z" fill="#FFAE00" fill-opacity="0.2" stroke="#FFAE00" stroke-width="1.5"/>
<path d="M10 11.666H10.0075" stroke="#FFAE00" stroke-width="2" stroke-linecap="round" stroke-linejoin="round"/>
<path d="M5.83337 18.334H14.1667" stroke="#FFAE00" stroke-width="1.5" stroke-linecap="round"/>
</svg>
