<svg width="16" height="16" viewBox="0 0 16 16" fill="none" xmlns="http://www.w3.org/2000/svg">
<path d="M12.8542 11.8538C12.7692 11.9386 12.7018 12.0394 12.6558 12.1502C12.6098 12.2611 12.5862 12.38 12.5862 12.5001C12.5862 12.6201 12.6098 12.739 12.6558 12.8499C12.7018 12.9608 12.7692 13.0615 12.8542 13.1463C12.948 13.2401 13.0007 13.3674 13.0007 13.5001C13.0007 13.6327 12.948 13.76 12.8542 13.8538C12.7604 13.9476 12.6331 14.0003 12.5004 14.0003C12.3677 14.0003 12.2405 13.9476 12.1467 13.8538C11.7878 13.4947 11.5862 13.0078 11.5862 12.5001C11.5862 11.9923 11.7878 11.5054 12.1467 11.1463L12.7329 10.5607C12.9044 10.3889 13.0006 10.156 13.0004 9.91324C13.0001 9.67049 12.9035 9.43779 12.7317 9.26631C12.5599 9.09483 12.327 8.99862 12.0842 8.99886C11.8415 8.99909 11.6088 9.09575 11.4373 9.26756L7.26731 13.4376C6.90382 13.772 6.42512 13.9531 5.93126 13.9428C5.43741 13.9326 4.96663 13.7318 4.61735 13.3825C4.26807 13.0332 4.06731 12.5625 4.05705 12.0686C4.0468 11.5747 4.22783 11.096 4.56231 10.7326L10.7323 4.56256C10.8173 4.47753 10.8848 4.37658 10.9308 4.26548C10.9768 4.15438 11.0005 4.03531 11.0005 3.91506C11.0005 3.79481 10.9768 3.67573 10.9308 3.56463C10.8848 3.45353 10.8173 3.35259 10.7323 3.26756C10.6473 3.18253 10.5463 3.11508 10.4352 3.06906C10.3241 3.02304 10.2051 2.99935 10.0848 2.99935C9.96455 2.99935 9.84548 3.02304 9.73438 3.06906C9.62328 3.11508 9.52234 3.18253 9.43731 3.26756L5.26731 7.43756C4.90382 7.77204 4.42512 7.95307 3.93126 7.94281C3.43741 7.93255 2.96663 7.7318 2.61735 7.38251C2.26807 7.03323 2.06731 6.56246 2.05705 6.0686C2.0468 5.57475 2.22783 5.09604 2.56231 4.73256L5.14606 2.14631C5.23988 2.05257 5.36709 1.99994 5.49971 2C5.63234 2.00006 5.75951 2.0528 5.85324 2.14662C5.94698 2.24044 5.99961 2.36765 5.99955 2.50028C5.99949 2.6329 5.94675 2.76007 5.85293 2.85381L3.26668 5.43756C3.09495 5.60937 2.99851 5.84236 2.99857 6.08528C2.99863 6.3282 3.09518 6.56114 3.26699 6.73287C3.4388 6.9046 3.6718 7.00104 3.91471 7.00098C4.15763 7.00092 4.39058 6.90437 4.56231 6.73256L8.73231 2.56256C9.09579 2.22808 9.5745 2.04705 10.0684 2.05731C10.5622 2.06756 11.033 2.26832 11.3823 2.6176C11.7315 2.96688 11.9323 3.43766 11.9426 3.93151C11.9528 4.42537 11.7718 4.90407 11.4373 5.26756L5.26731 11.4376C5.09558 11.6093 4.9991 11.8422 4.9991 12.0851C4.9991 12.3279 5.09558 12.5608 5.26731 12.7326C5.43903 12.9043 5.67195 13.0008 5.91481 13.0008C6.15767 13.0008 6.39058 12.9043 6.56231 12.7326L10.7323 8.56256C11.0958 8.22808 11.5745 8.04705 12.0684 8.05731C12.5622 8.06756 13.033 8.26832 13.3823 8.6176C13.7315 8.96688 13.9323 9.43766 13.9426 9.93151C13.9528 10.4254 13.7718 10.9041 13.4373 11.2676L12.8542 11.8538Z" fill="black"/>
</svg>
