<svg width="58" height="58" viewBox="0 0 58 58" fill="none" xmlns="http://www.w3.org/2000/svg">
<g clip-path="url(#clip0_200_13270)">
<path d="M56.8845 11.1535V55.7689H1.11523V11.1535C1.11523 8.787 2.05533 6.51737 3.72874 4.84397C5.40214 3.17057 7.67176 2.23047 10.0383 2.23047H47.9614C50.3279 2.23047 52.5975 3.17057 54.2709 4.84397C55.9443 6.51737 56.8845 8.787 56.8845 11.1535Z" fill="white"/>
<path d="M48.3688 2.23047H9.63087C4.92729 2.23047 1.11523 6.13151 1.11523 10.9452V55.7692H3.65467V10.9452C3.63785 9.34221 4.25766 7.79799 5.37805 6.6514C6.49845 5.50481 8.02789 4.84952 9.63087 4.8293H48.3688C51.6644 4.8293 54.345 7.57258 54.345 10.9452V55.7692H56.8845V10.9452C56.8845 6.13151 53.0723 2.23047 48.3688 2.23047Z" fill="url(#paint0_linear_200_13270)"/>
<path d="M51.4411 10.8281H6.55243C5.78242 10.8281 5.1582 11.4523 5.1582 12.2224V23.9593C5.1582 24.7293 5.78242 25.3535 6.55243 25.3535H51.4411C52.2111 25.3535 52.8353 24.7293 52.8353 23.9593V12.2224C52.8353 11.4523 52.2111 10.8281 51.4411 10.8281Z" fill="#2D0B0B" fill-opacity="0.03"/>
<path opacity="0.3" d="M41.5211 15.8672H20.2772C19.7455 15.8672 19.3145 16.2982 19.3145 16.8299C19.3145 17.3616 19.7455 17.7926 20.2772 17.7926H41.5211C42.0528 17.7926 42.4838 17.3616 42.4838 16.8299C42.4838 16.2982 42.0528 15.8672 41.5211 15.8672Z" fill="black"/>
<path opacity="0.3" d="M35.6065 18.9629H19.9888C19.6164 18.9629 19.3145 19.2648 19.3145 19.6373C19.3145 20.0097 19.6164 20.3117 19.9888 20.3117H35.6065C35.9789 20.3117 36.2808 20.0097 36.2808 19.6373C36.2808 19.2648 35.9789 18.9629 35.6065 18.9629Z" fill="black"/>
<path d="M15.8008 13.1016H8.61103C7.84102 13.1016 7.2168 13.7258 7.2168 14.4958V21.6856C7.2168 22.4556 7.84102 23.0798 8.61103 23.0798H15.8008C16.5708 23.0798 17.195 22.4556 17.195 21.6856V14.4958C17.195 13.7258 16.5708 13.1016 15.8008 13.1016Z" fill="black" fill-opacity="0.3"/>
<path d="M51.4411 27.4648H6.55243C5.78242 27.4648 5.1582 28.0891 5.1582 28.8591V40.596C5.1582 41.366 5.78242 41.9902 6.55243 41.9902H51.4411C52.2111 41.9902 52.8353 41.366 52.8353 40.596V28.8591C52.8353 28.0891 52.2111 27.4648 51.4411 27.4648Z" fill="#2D0B0B" fill-opacity="0.03"/>
<path opacity="0.3" d="M41.5211 32.5039H20.2772C19.7455 32.5039 19.3145 32.9349 19.3145 33.4666C19.3145 33.9983 19.7455 34.4293 20.2772 34.4293H41.5211C42.0528 34.4293 42.4838 33.9983 42.4838 33.4666C42.4838 32.9349 42.0528 32.5039 41.5211 32.5039Z" fill="black"/>
<path opacity="0.3" d="M35.6065 35.5996H19.9888C19.6164 35.5996 19.3145 35.9015 19.3145 36.274C19.3145 36.6465 19.6164 36.9484 19.9888 36.9484H35.6065C35.9789 36.9484 36.2808 36.6465 36.2808 36.274C36.2808 35.9015 35.9789 35.5996 35.6065 35.5996Z" fill="black"/>
<path d="M15.8008 29.7383H8.61103C7.84102 29.7383 7.2168 30.3625 7.2168 31.1325V38.3223C7.2168 39.0923 7.84102 39.7165 8.61103 39.7165H15.8008C16.5708 39.7165 17.195 39.0923 17.195 38.3223V31.1325C17.195 30.3625 16.5708 29.7383 15.8008 29.7383Z" fill="black" fill-opacity="0.3"/>
<path d="M52.8353 45.4997V55.7696H5.1582V45.4997C5.1582 45.1299 5.30506 44.7753 5.56653 44.5138C5.828 44.2524 6.18266 44.1055 6.55243 44.1055H51.4411C51.8109 44.1055 52.1654 44.2524 52.4269 44.5138C52.6884 44.7753 52.8353 45.1299 52.8353 45.4997Z" fill="#2D0B0B" fill-opacity="0.03"/>
<path opacity="0.3" d="M41.7999 49.1309H19.9983C19.6206 49.1309 19.3145 49.437 19.3145 49.8147C19.3145 50.1924 19.6206 50.4986 19.9983 50.4986H41.7999C42.1776 50.4986 42.4838 50.1924 42.4838 49.8147C42.4838 49.437 42.1776 49.1309 41.7999 49.1309Z" fill="black"/>
<path opacity="0.3" d="M39.2504 51.6699H19.9888C19.6164 51.6699 19.3145 51.9719 19.3145 52.3443C19.3145 52.7168 19.6164 53.0187 19.9888 53.0187H39.2504C39.6229 53.0187 39.9248 52.7168 39.9248 52.3443C39.9248 51.9719 39.6229 51.6699 39.2504 51.6699Z" fill="black"/>
<path d="M17.1967 47.7731V54.9646C17.1976 55.2534 17.1079 55.5353 16.9402 55.7705H7.4761C7.30752 55.5356 7.21685 55.2537 7.2168 54.9646V47.7731C7.2168 47.4034 7.36366 47.0487 7.62513 46.7873C7.8866 46.5258 8.24125 46.3789 8.61103 46.3789H15.8025C16.1723 46.3789 16.5268 46.5258 16.7883 46.7873C17.0498 47.0487 17.1967 47.4034 17.1967 47.7731Z" fill="black" fill-opacity="0.3"/>
</g>
<defs>
<linearGradient id="paint0_linear_200_13270" x1="28.9998" y1="2.23047" x2="28.9998" y2="55.7692" gradientUnits="userSpaceOnUse">
<stop stop-color="#57B7F2"/>
<stop offset="1" stop-color="#3F81EA"/>
</linearGradient>
<clipPath id="clip0_200_13270">
<rect width="58" height="58" fill="white"/>
</clipPath>
</defs>
</svg>
