<svg width="28" height="28" viewBox="0 0 28 28" fill="none" xmlns="http://www.w3.org/2000/svg">
<path d="M20.8226 9.34298V7.32317L17.3557 4.2207H8.30832C6.94125 4.2207 5.83301 5.32895 5.83301 6.69601V21.3046C5.83301 22.6717 6.94125 23.78 8.30832 23.78H17.5627" stroke="#636366" stroke-width="2.1" stroke-miterlimit="10" stroke-linecap="round" stroke-linejoin="round"/>
<path d="M15.5667 11.6551C15.5667 12.2742 16.0672 12.7746 16.6863 12.7746C17.3054 12.7746 17.8058 12.2742 17.8058 11.6551V10.5355C17.8058 9.91756 17.3054 9.41602 16.6863 9.41602H9.96913C9.35115 9.41602 8.84961 9.91756 8.84961 10.5355V11.6551C8.84961 12.2742 9.35115 12.7746 9.96913 12.7746C10.5871 12.7746 11.0887 12.2742 11.0887 11.6551H12.2082V17.2198C11.5902 17.2198 11.0887 17.7202 11.0887 18.3393C11.0887 18.9584 11.5902 19.4588 12.2082 19.4588H14.4472C15.0663 19.4588 15.5667 18.9584 15.5667 18.3393C15.5667 17.7202 15.0663 17.2198 14.4472 17.2198V11.6551H15.5667Z" fill="#636366"/>
<rect x="16.7334" y="15.1094" width="5.43313" height="3.25988" rx="1.08663" fill="#636366"/>
</svg>
