<svg width="28" height="28" viewBox="0 0 28 28" fill="none" xmlns="http://www.w3.org/2000/svg">
<path d="M7.13967 5.83398H11.0597C11.4062 5.83398 11.7386 5.97165 11.9836 6.2167C12.2287 6.46175 12.3663 6.7941 12.3663 7.14065V11.0607C12.3663 11.4072 12.2287 11.7396 11.9836 11.9846C11.7386 12.2297 11.4062 12.3673 11.0597 12.3673H7.13967C6.79312 12.3673 6.46077 12.2297 6.21572 11.9846C5.97067 11.7396 5.83301 11.4072 5.83301 11.0607V7.14065C5.83301 6.7941 5.97067 6.46175 6.21572 6.2167C6.46077 5.97165 6.79312 5.83398 7.13967 5.83398Z" stroke="#636366" stroke-width="1.68917" stroke-linecap="round" stroke-linejoin="round"/>
<path d="M16.9405 5.83398H20.8605C21.207 5.83398 21.5394 5.97165 21.7844 6.2167C22.0295 6.46175 22.1671 6.7941 22.1671 7.14065V11.0607C22.1671 11.4072 22.0295 11.7396 21.7844 11.9846C21.5394 12.2297 21.207 12.3673 20.8605 12.3673H16.9405C16.5939 12.3673 16.2616 12.2297 16.0165 11.9846C15.7715 11.7396 15.6338 11.4072 15.6338 11.0607V7.14065C15.6338 6.7941 15.7715 6.46175 16.0165 6.2167C16.2616 5.97165 16.5939 5.83398 16.9405 5.83398Z" stroke="#636366" stroke-width="1.68917" stroke-linecap="round" stroke-linejoin="round"/>
<path d="M7.13967 15.6348H11.0597C11.4062 15.6348 11.7386 15.7724 11.9836 16.0175C12.2287 16.2625 12.3663 16.5949 12.3663 16.9414V20.8614C12.3663 21.208 12.2287 21.5403 11.9836 21.7854C11.7386 22.0304 11.4062 22.1681 11.0597 22.1681H7.13967C6.79312 22.1681 6.46077 22.0304 6.21572 21.7854C5.97067 21.5403 5.83301 21.208 5.83301 20.8614V16.9414C5.83301 16.5949 5.97067 16.2625 6.21572 16.0175C6.46077 15.7724 6.79312 15.6348 7.13967 15.6348Z" stroke="#636366" stroke-width="1.68917" stroke-linecap="round" stroke-linejoin="round"/>
<path d="M16.9405 15.6348H20.8605C21.207 15.6348 21.5394 15.7724 21.7844 16.0175C22.0295 16.2625 22.1671 16.5949 22.1671 16.9414V20.8614C22.1671 21.208 22.0295 21.5403 21.7844 21.7854C21.5394 22.0304 21.207 22.1681 20.8605 22.1681H16.9405C16.5939 22.1681 16.2616 22.0304 16.0165 21.7854C15.7715 21.5403 15.6338 21.208 15.6338 20.8614V16.9414C15.6338 16.5949 15.7715 16.2625 16.0165 16.0175C16.2616 15.7724 16.5939 15.6348 16.9405 15.6348Z" stroke="#636366" stroke-width="1.68917" stroke-linecap="round" stroke-linejoin="round"/>
</svg>
