<svg width="28" height="28" viewBox="0 0 28 28" fill="none" xmlns="http://www.w3.org/2000/svg">
<path d="M14.0003 23.3327C19.1549 23.3327 23.3337 19.154 23.3337 13.9993C23.3337 8.84469 19.1549 4.66602 14.0003 4.66602C8.84567 4.66602 4.66699 8.84469 4.66699 13.9993C4.66699 15.2863 4.92746 16.5124 5.39856 17.6279C5.65892 18.2442 5.7891 18.5525 5.80522 18.7855C5.82134 19.0184 5.75278 19.2746 5.61565 19.7871L4.66699 23.3327L8.21251 22.384C8.72501 22.2469 8.98127 22.1783 9.21421 22.1945C9.44716 22.2105 9.75539 22.3407 10.3719 22.6011C11.4873 23.0722 12.7134 23.3327 14.0003 23.3327Z" stroke="#636366" stroke-width="2" stroke-miterlimit="10" stroke-linecap="round" stroke-linejoin="round"/>
<path d="M11.016 14.3301L11.7778 13.384C12.0988 12.9853 12.4957 12.6141 12.5268 12.0831C12.5346 11.9491 12.4403 11.347 12.2516 10.1429C12.1774 9.66964 11.7356 9.62695 11.3529 9.62695C10.8542 9.62695 10.6048 9.62695 10.3572 9.74005C10.0443 9.883 9.72298 10.2849 9.65247 10.6217C9.59668 10.8881 9.63814 11.0717 9.72106 11.4389C10.0732 12.9985 10.8994 14.5387 12.1804 15.8198C13.4615 17.1009 15.0017 17.927 16.5613 18.2792C16.9285 18.3621 17.1121 18.4035 17.3786 18.3477C17.7153 18.2772 18.1172 17.956 18.2602 17.643C18.3733 17.3954 18.3733 17.1461 18.3733 16.6474C18.3733 16.2646 18.3306 15.8229 17.8573 15.7487C16.6532 15.5599 16.0512 15.4657 15.917 15.4734C15.3861 15.5046 15.015 15.9014 14.6162 16.2225L13.6701 16.9842" stroke="#636366" stroke-width="2" stroke-miterlimit="10" stroke-linecap="round" stroke-linejoin="round"/>
</svg>
