<svg width="24" height="24" viewBox="0 0 24 24" fill="none" xmlns="http://www.w3.org/2000/svg">
<path d="M21.75 15.75H5.98684C6.23622 15.2587 6.48653 14.7534 6.73684 14.2397C8.14309 14.3944 9.79122 13.4166 11.6737 11.3203C12.1425 12.5822 13.0284 14.22 14.5406 14.25C15.39 14.2669 16.2384 13.7625 17.1112 12.7153C17.7478 13.4766 19.0593 14.25 21.75 14.25C21.9489 14.25 22.1396 14.171 22.2803 14.0303C22.4209 13.8897 22.5 13.6989 22.5 13.5C22.5 13.3011 22.4209 13.1103 22.2803 12.9697C22.1396 12.829 21.9489 12.75 21.75 12.75C18.8972 12.75 18.0534 11.7703 18 11.2397C18.0084 11.0787 17.9625 10.9196 17.8697 10.7879C17.7769 10.6561 17.6425 10.5593 17.4881 10.5131C17.3277 10.4649 17.1559 10.4709 16.9991 10.53C16.8424 10.5891 16.7095 10.6982 16.6209 10.8403C15.4893 12.5784 14.804 12.7556 14.5659 12.75C13.7915 12.735 13.004 10.92 12.734 9.61688C12.7052 9.47731 12.6372 9.34883 12.5381 9.2465C12.4389 9.14417 12.3126 9.07222 12.174 9.03907C12.0354 9.00592 11.8902 9.01294 11.7554 9.05932C11.6207 9.1057 11.5019 9.18951 11.4131 9.30094C9.51934 11.6766 8.24997 12.4762 7.45965 12.6834C8.25559 10.9144 8.84997 9.36094 9.23059 8.05313C9.86997 5.85563 9.91684 4.31906 9.37215 3.35625C9.0909 2.85187 8.49653 2.25 7.30403 2.25C5.7984 2.25 4.61059 3.67313 4.04434 6.15469C3.70778 7.6275 3.65247 9.26813 3.89247 10.6547C4.13247 12.0413 4.63028 13.05 5.35403 13.6491C5.00434 14.3728 4.64809 15.0797 4.30122 15.75H2.24997C2.05105 15.75 1.86029 15.829 1.71964 15.9697C1.57898 16.1103 1.49997 16.3011 1.49997 16.5C1.49997 16.6989 1.57898 16.8897 1.71964 17.0303C1.86029 17.171 2.05105 17.25 2.24997 17.25H3.50715C2.4459 19.2188 1.6209 20.5913 1.60778 20.6138C1.55431 20.6982 1.51826 20.7925 1.50175 20.8911C1.48525 20.9897 1.48861 21.0906 1.51165 21.1878C1.5347 21.2851 1.57695 21.3768 1.63593 21.4575C1.69491 21.5382 1.76943 21.6063 1.8551 21.6578C1.94078 21.7093 2.03588 21.7431 2.13482 21.7573C2.23377 21.7715 2.33455 21.7658 2.43126 21.7405C2.52796 21.7152 2.61863 21.6709 2.69794 21.61C2.77726 21.5492 2.8436 21.4731 2.89309 21.3862C2.90715 21.3619 3.94965 19.6247 5.20872 17.25H21.75C21.9489 17.25 22.1396 17.171 22.2803 17.0303C22.4209 16.8897 22.5 16.6989 22.5 16.5C22.5 16.3011 22.4209 16.1103 22.2803 15.9697C22.1396 15.829 21.9489 15.75 21.75 15.75ZM5.50684 6.48844C5.87997 4.85063 6.60278 3.75 7.30403 3.75C7.80372 3.75 7.96965 3.92437 8.06622 4.09406C8.34747 4.59375 8.67747 6.36187 6.03559 12.1931C5.26122 11.1356 4.99778 8.71875 5.50684 6.48844Z" fill="white"/>
</svg>
